%TF.GenerationSoftware,KiCad,Pcbnew,9.0.0*%
%TF.CreationDate,2025-03-18T21:00:27+01:00*%
%TF.ProjectId,to_ROMRAM_using_SWRegisters,746f5f52-4f4d-4524-914d-5f7573696e67,rev?*%
%TF.SameCoordinates,Original*%
%TF.FileFunction,Copper,L1,Top*%
%TF.FilePolarity,Positive*%
%FSLAX46Y46*%
G04 Gerber Fmt 4.6, Leading zero omitted, Abs format (unit mm)*
G04 Created by KiCad (PCBNEW 9.0.0) date 2025-03-18 21:00:27*
%MOMM*%
%LPD*%
G01*
G04 APERTURE LIST*
%TA.AperFunction,ComponentPad*%
%ADD10C,2.700000*%
%TD*%
%TA.AperFunction,SMDPad,CuDef*%
%ADD11O,0.574000X2.388000*%
%TD*%
%TA.AperFunction,ComponentPad*%
%ADD12R,1.600000X1.600000*%
%TD*%
%TA.AperFunction,ComponentPad*%
%ADD13C,1.600000*%
%TD*%
%TA.AperFunction,ViaPad*%
%ADD14C,0.600000*%
%TD*%
%TA.AperFunction,Conductor*%
%ADD15C,0.200000*%
%TD*%
G04 APERTURE END LIST*
D10*
%TO.P,v_dg0_a40,1,A*%
%TO.N,Net-(J1-Pin_1)*%
X165696900Y-147500000D03*
%TO.P,v_dg0_a40,2,B*%
%TO.N,Net-(U5-IN2)*%
X170396900Y-147500000D03*
%TO.P,v_dg0_a40,3,C*%
%TO.N,Net-(J1-Pin_2)*%
X175096900Y-147500000D03*
%TD*%
%TO.P,v_dg0_a29,1,A*%
%TO.N,Net-(J1-Pin_1)*%
X247632400Y-131500000D03*
%TO.P,v_dg0_a29,2,B*%
%TO.N,Net-(U4-IN12)*%
X252332400Y-131500000D03*
%TO.P,v_dg0_a29,3,C*%
%TO.N,Net-(J1-Pin_2)*%
X257032400Y-131500000D03*
%TD*%
%TO.P,v_dg0_a11,1,A*%
%TO.N,Net-(J1-Pin_1)*%
X214863100Y-116500000D03*
%TO.P,v_dg0_a11,2,B*%
%TO.N,Net-(U3-IN15)*%
X219563100Y-116500000D03*
%TO.P,v_dg0_a11,3,C*%
%TO.N,Net-(J1-Pin_2)*%
X224263100Y-116500000D03*
%TD*%
%TO.P,v_dg0_a7,1,A*%
%TO.N,Net-(J1-Pin_1)*%
X149312900Y-116500000D03*
%TO.P,v_dg0_a7,2,B*%
%TO.N,Net-(U3-IN8)*%
X154012900Y-116500000D03*
%TO.P,v_dg0_a7,3,C*%
%TO.N,Net-(J1-Pin_2)*%
X158712900Y-116500000D03*
%TD*%
%TO.P,v_dg0_a21,1,A*%
%TO.N,Net-(J1-Pin_1)*%
X116535600Y-131500000D03*
%TO.P,v_dg0_a21,2,B*%
%TO.N,Net-(U4-IN11)*%
X121235600Y-131500000D03*
%TO.P,v_dg0_a21,3,C*%
%TO.N,Net-(J1-Pin_2)*%
X125935600Y-131500000D03*
%TD*%
%TO.P,v_dg0_a8,1,A*%
%TO.N,Net-(J1-Pin_1)*%
X165700400Y-116500000D03*
%TO.P,v_dg0_a8,2,B*%
%TO.N,Net-(U3-IN9)*%
X170400400Y-116500000D03*
%TO.P,v_dg0_a8,3,C*%
%TO.N,Net-(J1-Pin_2)*%
X175100400Y-116500000D03*
%TD*%
%TO.P,v_dg0_a10,1,A*%
%TO.N,Net-(J1-Pin_1)*%
X198475600Y-116500000D03*
%TO.P,v_dg0_a10,2,B*%
%TO.N,Net-(U3-IN13)*%
X203175600Y-116500000D03*
%TO.P,v_dg0_a10,3,C*%
%TO.N,Net-(J1-Pin_2)*%
X207875600Y-116500000D03*
%TD*%
%TO.P,v_dg0_a48,1,A*%
%TO.N,Net-(J1-Pin_1)*%
X34600000Y-162500000D03*
%TO.P,v_dg0_a48,2,B*%
%TO.N,Net-(U6-IN1)*%
X39300000Y-162500000D03*
%TO.P,v_dg0_a48,3,C*%
%TO.N,Net-(J1-Pin_2)*%
X44000000Y-162500000D03*
%TD*%
%TO.P,v_dg0_a61,1,A*%
%TO.N,Net-(J1-Pin_1)*%
X247800000Y-162500000D03*
%TO.P,v_dg0_a61,2,B*%
%TO.N,Net-(U6-IN12)*%
X252500000Y-162500000D03*
%TO.P,v_dg0_a61,3,C*%
%TO.N,Net-(J1-Pin_2)*%
X257200000Y-162500000D03*
%TD*%
%TO.P,v_dg0_a39,1,A*%
%TO.N,Net-(J1-Pin_1)*%
X149309800Y-147500000D03*
%TO.P,v_dg0_a39,2,B*%
%TO.N,Net-(U5-IN15)*%
X154009800Y-147500000D03*
%TO.P,v_dg0_a39,3,C*%
%TO.N,Net-(J1-Pin_2)*%
X158709800Y-147500000D03*
%TD*%
%TO.P,v_dg0_a14,1,A*%
%TO.N,Net-(J1-Pin_1)*%
X264025800Y-116500000D03*
%TO.P,v_dg0_a14,2,B*%
%TO.N,Net-(U3-IN14)*%
X268725800Y-116500000D03*
%TO.P,v_dg0_a14,3,C*%
%TO.N,Net-(J1-Pin_2)*%
X273425800Y-116500000D03*
%TD*%
%TO.P,v_dg0_a20,1,A*%
%TO.N,Net-(J1-Pin_1)*%
X100148400Y-131500000D03*
%TO.P,v_dg0_a20,2,B*%
%TO.N,Net-(U4-IN9)*%
X104848400Y-131500000D03*
%TO.P,v_dg0_a20,3,C*%
%TO.N,Net-(J1-Pin_2)*%
X109548400Y-131500000D03*
%TD*%
%TO.P,v_dg0_a46,1,A*%
%TO.N,Net-(J1-Pin_1)*%
X264019600Y-147500000D03*
%TO.P,v_dg0_a46,2,B*%
%TO.N,Net-(U5-IN14)*%
X268719600Y-147500000D03*
%TO.P,v_dg0_a46,3,C*%
%TO.N,Net-(J1-Pin_2)*%
X273419600Y-147500000D03*
%TD*%
%TO.P,v_dg0_a42,1,A*%
%TO.N,Net-(J1-Pin_1)*%
X198471100Y-147500000D03*
%TO.P,v_dg0_a42,2,B*%
%TO.N,Net-(U5-IN6)*%
X203171100Y-147500000D03*
%TO.P,v_dg0_a42,3,C*%
%TO.N,Net-(J1-Pin_2)*%
X207871100Y-147500000D03*
%TD*%
%TO.P,v_dg0_a27,1,A*%
%TO.N,Net-(J1-Pin_1)*%
X214858200Y-131500000D03*
%TO.P,v_dg0_a27,2,B*%
%TO.N,Net-(U4-IN8)*%
X219558200Y-131500000D03*
%TO.P,v_dg0_a27,3,C*%
%TO.N,Net-(J1-Pin_2)*%
X224258200Y-131500000D03*
%TD*%
D11*
%TO.P,U3,1,+VSUPPLY*%
%TO.N,Net-(J1-Pin_1)*%
X57745000Y-74744000D03*
%TO.P,U3,2,NC*%
%TO.N,unconnected-(U3-NC-Pad2)*%
X59015000Y-74744000D03*
%TO.P,U3,3,NC*%
%TO.N,unconnected-(U3-NC-Pad3)*%
X60285000Y-74744000D03*
%TO.P,U3,4,IN16*%
%TO.N,Net-(U3-IN16)*%
X61555000Y-74744000D03*
%TO.P,U3,5,IN15*%
%TO.N,Net-(U3-IN15)*%
X62825000Y-74744000D03*
%TO.P,U3,6,IN14*%
%TO.N,Net-(U3-IN14)*%
X64095000Y-74744000D03*
%TO.P,U3,7,IN13*%
%TO.N,Net-(U3-IN13)*%
X65365000Y-74744000D03*
%TO.P,U3,8,IN12*%
%TO.N,Net-(U3-IN12)*%
X66635000Y-74744000D03*
%TO.P,U3,9,IN11*%
%TO.N,Net-(U3-IN11)*%
X67905000Y-74744000D03*
%TO.P,U3,10,IN10*%
%TO.N,Net-(U3-IN10)*%
X69175000Y-74744000D03*
%TO.P,U3,11,IN9*%
%TO.N,Net-(U3-IN9)*%
X70445000Y-74744000D03*
%TO.P,U3,12,GND*%
%TO.N,Net-(J1-Pin_2)*%
X71715000Y-74744000D03*
%TO.P,U3,13,NC*%
%TO.N,unconnected-(U3-NC-Pad13)*%
X72985000Y-74744000D03*
%TO.P,U3,14,AdrA3*%
%TO.N,Net-(J1-Pin_3)*%
X74255000Y-74744000D03*
%TO.P,U3,15,AdrA2*%
%TO.N,Net-(J1-Pin_4)*%
X74255000Y-65256000D03*
%TO.P,U3,16,AdrA1*%
%TO.N,Net-(J1-Pin_5)*%
X72985000Y-65256000D03*
%TO.P,U3,17,AdrA0*%
%TO.N,Net-(J1-Pin_6)*%
X71715000Y-65256000D03*
%TO.P,U3,18,ENABLE*%
%TO.N,Net-(J1-Pin_1)*%
X70445000Y-65256000D03*
%TO.P,U3,19,IN1*%
%TO.N,Net-(U3-IN1)*%
X69175000Y-65256000D03*
%TO.P,U3,20,IN2*%
%TO.N,Net-(U3-IN2)*%
X67905000Y-65256000D03*
%TO.P,U3,21,IN3*%
%TO.N,Net-(U3-IN3)*%
X66635000Y-65256000D03*
%TO.P,U3,22,IN4*%
%TO.N,Net-(U3-IN4)*%
X65365000Y-65256000D03*
%TO.P,U3,23,IN5*%
%TO.N,Net-(U3-IN5)*%
X64095000Y-65256000D03*
%TO.P,U3,24,IN6*%
%TO.N,Net-(U3-IN6)*%
X62825000Y-65256000D03*
%TO.P,U3,25,IN7*%
%TO.N,Net-(U3-IN7)*%
X61555000Y-65256000D03*
%TO.P,U3,26,IN8*%
%TO.N,Net-(U3-IN8)*%
X60285000Y-65256000D03*
%TO.P,U3,27,-VSUPPLY*%
%TO.N,Net-(J1-Pin_15)*%
X59015000Y-65256000D03*
%TO.P,U3,28,OUT*%
%TO.N,Net-(J1-Pin_10)*%
X57745000Y-65256000D03*
%TD*%
D10*
%TO.P,v_dg0_a26,1,A*%
%TO.N,Net-(J1-Pin_1)*%
X198471100Y-131500000D03*
%TO.P,v_dg0_a26,2,B*%
%TO.N,Net-(U4-IN6)*%
X203171100Y-131500000D03*
%TO.P,v_dg0_a26,3,C*%
%TO.N,Net-(J1-Pin_2)*%
X207871100Y-131500000D03*
%TD*%
%TO.P,v_dg0_a41,1,A*%
%TO.N,Net-(J1-Pin_1)*%
X182084000Y-147500000D03*
%TO.P,v_dg0_a41,2,B*%
%TO.N,Net-(U5-IN4)*%
X186784000Y-147500000D03*
%TO.P,v_dg0_a41,3,C*%
%TO.N,Net-(J1-Pin_2)*%
X191484000Y-147500000D03*
%TD*%
%TO.P,v_dg0_a13,1,A*%
%TO.N,Net-(J1-Pin_1)*%
X247638200Y-116500000D03*
%TO.P,v_dg0_a13,2,B*%
%TO.N,Net-(U3-IN12)*%
X252338200Y-116500000D03*
%TO.P,v_dg0_a13,3,C*%
%TO.N,Net-(J1-Pin_2)*%
X257038200Y-116500000D03*
%TD*%
%TO.P,v_dg0_a25,1,A*%
%TO.N,Net-(J1-Pin_1)*%
X182084000Y-131500000D03*
%TO.P,v_dg0_a25,2,B*%
%TO.N,Net-(U4-IN4)*%
X186784000Y-131500000D03*
%TO.P,v_dg0_a25,3,C*%
%TO.N,Net-(J1-Pin_2)*%
X191484000Y-131500000D03*
%TD*%
%TO.P,v_dg0_a36,1,A*%
%TO.N,Net-(J1-Pin_1)*%
X100148400Y-147500000D03*
%TO.P,v_dg0_a36,2,B*%
%TO.N,Net-(U5-IN9)*%
X104848400Y-147500000D03*
%TO.P,v_dg0_a36,3,C*%
%TO.N,Net-(J1-Pin_2)*%
X109548400Y-147500000D03*
%TD*%
%TO.P,v_dg0_a28,1,A*%
%TO.N,Net-(J1-Pin_1)*%
X231245300Y-131500000D03*
%TO.P,v_dg0_a28,2,B*%
%TO.N,Net-(U4-IN10)*%
X235945300Y-131500000D03*
%TO.P,v_dg0_a28,3,C*%
%TO.N,Net-(J1-Pin_2)*%
X240645300Y-131500000D03*
%TD*%
%TO.P,v_dg0_a60,1,A*%
%TO.N,Net-(J1-Pin_1)*%
X231400000Y-162500000D03*
%TO.P,v_dg0_a60,2,B*%
%TO.N,Net-(U6-IN10)*%
X236100000Y-162500000D03*
%TO.P,v_dg0_a60,3,C*%
%TO.N,Net-(J1-Pin_2)*%
X240800000Y-162500000D03*
%TD*%
%TO.P,v_dg0_a24,1,A*%
%TO.N,Net-(J1-Pin_1)*%
X165696900Y-131500000D03*
%TO.P,v_dg0_a24,2,B*%
%TO.N,Net-(U4-IN2)*%
X170396900Y-131500000D03*
%TO.P,v_dg0_a24,3,C*%
%TO.N,Net-(J1-Pin_2)*%
X175096900Y-131500000D03*
%TD*%
%TO.P,v_dg0_a31,1,A*%
%TO.N,Net-(J1-Pin_1)*%
X280406700Y-131500000D03*
%TO.P,v_dg0_a31,2,B*%
%TO.N,Net-(U4-IN16)*%
X285106700Y-131500000D03*
%TO.P,v_dg0_a31,3,C*%
%TO.N,Net-(J1-Pin_2)*%
X289806700Y-131500000D03*
%TD*%
%TO.P,v_dg0_a58,1,A*%
%TO.N,Net-(J1-Pin_1)*%
X198600000Y-162500000D03*
%TO.P,v_dg0_a58,2,B*%
%TO.N,Net-(U6-IN6)*%
X203300000Y-162500000D03*
%TO.P,v_dg0_a58,3,C*%
%TO.N,Net-(J1-Pin_2)*%
X208000000Y-162500000D03*
%TD*%
D11*
%TO.P,U6,1,+VSUPPLY*%
%TO.N,Net-(J1-Pin_1)*%
X229245000Y-74744000D03*
%TO.P,U6,2,NC*%
%TO.N,unconnected-(U6-NC-Pad2)*%
X230515000Y-74744000D03*
%TO.P,U6,3,NC*%
%TO.N,unconnected-(U6-NC-Pad3)*%
X231785000Y-74744000D03*
%TO.P,U6,4,IN16*%
%TO.N,Net-(U6-IN16)*%
X233055000Y-74744000D03*
%TO.P,U6,5,IN15*%
%TO.N,Net-(U6-IN15)*%
X234325000Y-74744000D03*
%TO.P,U6,6,IN14*%
%TO.N,Net-(U6-IN14)*%
X235595000Y-74744000D03*
%TO.P,U6,7,IN13*%
%TO.N,Net-(U6-IN13)*%
X236865000Y-74744000D03*
%TO.P,U6,8,IN12*%
%TO.N,Net-(U6-IN12)*%
X238135000Y-74744000D03*
%TO.P,U6,9,IN11*%
%TO.N,Net-(U6-IN11)*%
X239405000Y-74744000D03*
%TO.P,U6,10,IN10*%
%TO.N,Net-(U6-IN10)*%
X240675000Y-74744000D03*
%TO.P,U6,11,IN9*%
%TO.N,Net-(U6-IN9)*%
X241945000Y-74744000D03*
%TO.P,U6,12,GND*%
%TO.N,Net-(J1-Pin_2)*%
X243215000Y-74744000D03*
%TO.P,U6,13,NC*%
%TO.N,unconnected-(U6-NC-Pad13)*%
X244485000Y-74744000D03*
%TO.P,U6,14,AdrA3*%
%TO.N,Net-(J1-Pin_3)*%
X245755000Y-74744000D03*
%TO.P,U6,15,AdrA2*%
%TO.N,Net-(J1-Pin_4)*%
X245755000Y-65256000D03*
%TO.P,U6,16,AdrA1*%
%TO.N,Net-(J1-Pin_5)*%
X244485000Y-65256000D03*
%TO.P,U6,17,AdrA0*%
%TO.N,Net-(J1-Pin_6)*%
X243215000Y-65256000D03*
%TO.P,U6,18,ENABLE*%
%TO.N,Net-(J1-Pin_1)*%
X241945000Y-65256000D03*
%TO.P,U6,19,IN1*%
%TO.N,Net-(U6-IN1)*%
X240675000Y-65256000D03*
%TO.P,U6,20,IN2*%
%TO.N,Net-(U6-IN2)*%
X239405000Y-65256000D03*
%TO.P,U6,21,IN3*%
%TO.N,Net-(U6-IN3)*%
X238135000Y-65256000D03*
%TO.P,U6,22,IN4*%
%TO.N,Net-(U6-IN4)*%
X236865000Y-65256000D03*
%TO.P,U6,23,IN5*%
%TO.N,Net-(U6-IN5)*%
X235595000Y-65256000D03*
%TO.P,U6,24,IN6*%
%TO.N,Net-(U6-IN6)*%
X234325000Y-65256000D03*
%TO.P,U6,25,IN7*%
%TO.N,Net-(U6-IN7)*%
X233055000Y-65256000D03*
%TO.P,U6,26,IN8*%
%TO.N,Net-(U6-IN8)*%
X231785000Y-65256000D03*
%TO.P,U6,27,-VSUPPLY*%
%TO.N,Net-(J1-Pin_15)*%
X230515000Y-65256000D03*
%TO.P,U6,28,OUT*%
%TO.N,Net-(J1-Pin_7)*%
X229245000Y-65256000D03*
%TD*%
D12*
%TO.P,J1,1,Pin_1*%
%TO.N,Net-(J1-Pin_1)*%
X18831000Y-123286000D03*
D13*
%TO.P,J1,2,Pin_2*%
%TO.N,Net-(J1-Pin_2)*%
X18831000Y-120746000D03*
%TO.P,J1,3,Pin_3*%
%TO.N,Net-(J1-Pin_3)*%
X18831000Y-118206000D03*
%TO.P,J1,4,Pin_4*%
%TO.N,Net-(J1-Pin_4)*%
X18831000Y-115666000D03*
%TO.P,J1,5,Pin_5*%
%TO.N,Net-(J1-Pin_5)*%
X18831000Y-113126000D03*
%TO.P,J1,6,Pin_6*%
%TO.N,Net-(J1-Pin_6)*%
X18831000Y-110586000D03*
%TO.P,J1,7,Pin_7*%
%TO.N,Net-(J1-Pin_7)*%
X18831000Y-108046000D03*
%TO.P,J1,8,Pin_8*%
%TO.N,Net-(J1-Pin_8)*%
X18831000Y-105506000D03*
%TO.P,J1,9,Pin_9*%
%TO.N,Net-(J1-Pin_9)*%
X18831000Y-102966000D03*
%TO.P,J1,10,Pin_10*%
%TO.N,Net-(J1-Pin_10)*%
X18831000Y-100426000D03*
%TO.P,J1,11,Pin_11*%
%TO.N,unconnected-(J1-Pin_11-Pad11)*%
X18831000Y-97886000D03*
%TO.P,J1,12,Pin_12*%
%TO.N,unconnected-(J1-Pin_12-Pad12)*%
X18831000Y-95346000D03*
%TO.P,J1,13,Pin_13*%
%TO.N,unconnected-(J1-Pin_13-Pad13)*%
X18831000Y-92806000D03*
%TO.P,J1,14,Pin_14*%
%TO.N,unconnected-(J1-Pin_14-Pad14)*%
X18831000Y-90266000D03*
%TO.P,J1,15,Pin_15*%
%TO.N,Net-(J1-Pin_15)*%
X18831000Y-87726000D03*
%TD*%
D10*
%TO.P,v_dg0_a62,1,A*%
%TO.N,Net-(J1-Pin_1)*%
X264200000Y-162500000D03*
%TO.P,v_dg0_a62,2,B*%
%TO.N,Net-(U6-IN14)*%
X268900000Y-162500000D03*
%TO.P,v_dg0_a62,3,C*%
%TO.N,Net-(J1-Pin_2)*%
X273600000Y-162500000D03*
%TD*%
D11*
%TO.P,U5,1,+VSUPPLY*%
%TO.N,Net-(J1-Pin_1)*%
X173300000Y-74744000D03*
%TO.P,U5,2,NC*%
%TO.N,unconnected-(U5-NC-Pad2)*%
X174570000Y-74744000D03*
%TO.P,U5,3,NC*%
%TO.N,unconnected-(U5-NC-Pad3)*%
X175840000Y-74744000D03*
%TO.P,U5,4,IN16*%
%TO.N,Net-(U5-IN16)*%
X177110000Y-74744000D03*
%TO.P,U5,5,IN15*%
%TO.N,Net-(U5-IN15)*%
X178380000Y-74744000D03*
%TO.P,U5,6,IN14*%
%TO.N,Net-(U5-IN14)*%
X179650000Y-74744000D03*
%TO.P,U5,7,IN13*%
%TO.N,Net-(U5-IN13)*%
X180920000Y-74744000D03*
%TO.P,U5,8,IN12*%
%TO.N,Net-(U5-IN12)*%
X182190000Y-74744000D03*
%TO.P,U5,9,IN11*%
%TO.N,Net-(U5-IN11)*%
X183460000Y-74744000D03*
%TO.P,U5,10,IN10*%
%TO.N,Net-(U5-IN10)*%
X184730000Y-74744000D03*
%TO.P,U5,11,IN9*%
%TO.N,Net-(U5-IN9)*%
X186000000Y-74744000D03*
%TO.P,U5,12,GND*%
%TO.N,Net-(J1-Pin_2)*%
X187270000Y-74744000D03*
%TO.P,U5,13,NC*%
%TO.N,unconnected-(U5-NC-Pad13)*%
X188540000Y-74744000D03*
%TO.P,U5,14,AdrA3*%
%TO.N,Net-(J1-Pin_3)*%
X189810000Y-74744000D03*
%TO.P,U5,15,AdrA2*%
%TO.N,Net-(J1-Pin_4)*%
X189810000Y-65256000D03*
%TO.P,U5,16,AdrA1*%
%TO.N,Net-(J1-Pin_5)*%
X188540000Y-65256000D03*
%TO.P,U5,17,AdrA0*%
%TO.N,Net-(J1-Pin_6)*%
X187270000Y-65256000D03*
%TO.P,U5,18,ENABLE*%
%TO.N,Net-(J1-Pin_1)*%
X186000000Y-65256000D03*
%TO.P,U5,19,IN1*%
%TO.N,Net-(U5-IN1)*%
X184730000Y-65256000D03*
%TO.P,U5,20,IN2*%
%TO.N,Net-(U5-IN2)*%
X183460000Y-65256000D03*
%TO.P,U5,21,IN3*%
%TO.N,Net-(U5-IN3)*%
X182190000Y-65256000D03*
%TO.P,U5,22,IN4*%
%TO.N,Net-(U5-IN4)*%
X180920000Y-65256000D03*
%TO.P,U5,23,IN5*%
%TO.N,Net-(U5-IN5)*%
X179650000Y-65256000D03*
%TO.P,U5,24,IN6*%
%TO.N,Net-(U5-IN6)*%
X178380000Y-65256000D03*
%TO.P,U5,25,IN7*%
%TO.N,Net-(U5-IN7)*%
X177110000Y-65256000D03*
%TO.P,U5,26,IN8*%
%TO.N,Net-(U5-IN8)*%
X175840000Y-65256000D03*
%TO.P,U5,27,-VSUPPLY*%
%TO.N,Net-(J1-Pin_15)*%
X174570000Y-65256000D03*
%TO.P,U5,28,OUT*%
%TO.N,Net-(J1-Pin_8)*%
X173300000Y-65256000D03*
%TD*%
D10*
%TO.P,v_dg0_a22,1,A*%
%TO.N,Net-(J1-Pin_1)*%
X132922700Y-131500000D03*
%TO.P,v_dg0_a22,2,B*%
%TO.N,Net-(U4-IN13)*%
X137622700Y-131500000D03*
%TO.P,v_dg0_a22,3,C*%
%TO.N,Net-(J1-Pin_2)*%
X142322700Y-131500000D03*
%TD*%
%TO.P,v_dg0_a34,1,A*%
%TO.N,Net-(J1-Pin_1)*%
X67374200Y-147500000D03*
%TO.P,v_dg0_a34,2,B*%
%TO.N,Net-(U5-IN5)*%
X72074200Y-147500000D03*
%TO.P,v_dg0_a34,3,C*%
%TO.N,Net-(J1-Pin_2)*%
X76774200Y-147500000D03*
%TD*%
%TO.P,v_dg0_a57,1,A*%
%TO.N,Net-(J1-Pin_1)*%
X182200000Y-162500000D03*
%TO.P,v_dg0_a57,2,B*%
%TO.N,Net-(U6-IN4)*%
X186900000Y-162500000D03*
%TO.P,v_dg0_a57,3,C*%
%TO.N,Net-(J1-Pin_2)*%
X191600000Y-162500000D03*
%TD*%
%TO.P,v_dg0_a16,1,A*%
%TO.N,Net-(J1-Pin_1)*%
X34600000Y-131500000D03*
%TO.P,v_dg0_a16,2,B*%
%TO.N,Net-(U4-IN1)*%
X39300000Y-131500000D03*
%TO.P,v_dg0_a16,3,C*%
%TO.N,Net-(J1-Pin_2)*%
X44000000Y-131500000D03*
%TD*%
%TO.P,v_dg0_a50,1,A*%
%TO.N,Net-(J1-Pin_1)*%
X67400000Y-162500000D03*
%TO.P,v_dg0_a50,2,B*%
%TO.N,Net-(U6-IN5)*%
X72100000Y-162500000D03*
%TO.P,v_dg0_a50,3,C*%
%TO.N,Net-(J1-Pin_2)*%
X76800000Y-162500000D03*
%TD*%
%TO.P,v_dg0_a15,1,A*%
%TO.N,Net-(J1-Pin_1)*%
X280413300Y-116500000D03*
%TO.P,v_dg0_a15,2,B*%
%TO.N,Net-(U3-IN16)*%
X285113300Y-116500000D03*
%TO.P,v_dg0_a15,3,C*%
%TO.N,Net-(J1-Pin_2)*%
X289813300Y-116500000D03*
%TD*%
%TO.P,v_dg0_a19,1,A*%
%TO.N,Net-(J1-Pin_1)*%
X83761300Y-131500000D03*
%TO.P,v_dg0_a19,2,B*%
%TO.N,Net-(U4-IN7)*%
X88461300Y-131500000D03*
%TO.P,v_dg0_a19,3,C*%
%TO.N,Net-(J1-Pin_2)*%
X93161300Y-131500000D03*
%TD*%
%TO.P,v_dg0_a33,1,A*%
%TO.N,Net-(J1-Pin_1)*%
X50987100Y-147500000D03*
%TO.P,v_dg0_a33,2,B*%
%TO.N,Net-(U5-IN3)*%
X55687100Y-147500000D03*
%TO.P,v_dg0_a33,3,C*%
%TO.N,Net-(J1-Pin_2)*%
X60387100Y-147500000D03*
%TD*%
D11*
%TO.P,U4,1,+VSUPPLY*%
%TO.N,Net-(J1-Pin_1)*%
X112030000Y-74744000D03*
%TO.P,U4,2,NC*%
%TO.N,unconnected-(U4-NC-Pad2)*%
X113300000Y-74744000D03*
%TO.P,U4,3,NC*%
%TO.N,unconnected-(U4-NC-Pad3)*%
X114570000Y-74744000D03*
%TO.P,U4,4,IN16*%
%TO.N,Net-(U4-IN16)*%
X115840000Y-74744000D03*
%TO.P,U4,5,IN15*%
%TO.N,Net-(U4-IN15)*%
X117110000Y-74744000D03*
%TO.P,U4,6,IN14*%
%TO.N,Net-(U4-IN14)*%
X118380000Y-74744000D03*
%TO.P,U4,7,IN13*%
%TO.N,Net-(U4-IN13)*%
X119650000Y-74744000D03*
%TO.P,U4,8,IN12*%
%TO.N,Net-(U4-IN12)*%
X120920000Y-74744000D03*
%TO.P,U4,9,IN11*%
%TO.N,Net-(U4-IN11)*%
X122190000Y-74744000D03*
%TO.P,U4,10,IN10*%
%TO.N,Net-(U4-IN10)*%
X123460000Y-74744000D03*
%TO.P,U4,11,IN9*%
%TO.N,Net-(U4-IN9)*%
X124730000Y-74744000D03*
%TO.P,U4,12,GND*%
%TO.N,Net-(J1-Pin_2)*%
X126000000Y-74744000D03*
%TO.P,U4,13,NC*%
%TO.N,unconnected-(U4-NC-Pad13)*%
X127270000Y-74744000D03*
%TO.P,U4,14,AdrA3*%
%TO.N,Net-(J1-Pin_3)*%
X128540000Y-74744000D03*
%TO.P,U4,15,AdrA2*%
%TO.N,Net-(J1-Pin_4)*%
X128540000Y-65256000D03*
%TO.P,U4,16,AdrA1*%
%TO.N,Net-(J1-Pin_5)*%
X127270000Y-65256000D03*
%TO.P,U4,17,AdrA0*%
%TO.N,Net-(J1-Pin_6)*%
X126000000Y-65256000D03*
%TO.P,U4,18,ENABLE*%
%TO.N,Net-(J1-Pin_1)*%
X124730000Y-65256000D03*
%TO.P,U4,19,IN1*%
%TO.N,Net-(U4-IN1)*%
X123460000Y-65256000D03*
%TO.P,U4,20,IN2*%
%TO.N,Net-(U4-IN2)*%
X122190000Y-65256000D03*
%TO.P,U4,21,IN3*%
%TO.N,Net-(U4-IN3)*%
X120920000Y-65256000D03*
%TO.P,U4,22,IN4*%
%TO.N,Net-(U4-IN4)*%
X119650000Y-65256000D03*
%TO.P,U4,23,IN5*%
%TO.N,Net-(U4-IN5)*%
X118380000Y-65256000D03*
%TO.P,U4,24,IN6*%
%TO.N,Net-(U4-IN6)*%
X117110000Y-65256000D03*
%TO.P,U4,25,IN7*%
%TO.N,Net-(U4-IN7)*%
X115840000Y-65256000D03*
%TO.P,U4,26,IN8*%
%TO.N,Net-(U4-IN8)*%
X114570000Y-65256000D03*
%TO.P,U4,27,-VSUPPLY*%
%TO.N,Net-(J1-Pin_15)*%
X113300000Y-65256000D03*
%TO.P,U4,28,OUT*%
%TO.N,Net-(J1-Pin_9)*%
X112030000Y-65256000D03*
%TD*%
D10*
%TO.P,v_dg0_a55,1,A*%
%TO.N,Net-(J1-Pin_1)*%
X149400000Y-162500000D03*
%TO.P,v_dg0_a55,2,B*%
%TO.N,Net-(U6-IN15)*%
X154100000Y-162500000D03*
%TO.P,v_dg0_a55,3,C*%
%TO.N,Net-(J1-Pin_2)*%
X158800000Y-162500000D03*
%TD*%
%TO.P,v_dg0_a53,1,A*%
%TO.N,Net-(J1-Pin_1)*%
X116600000Y-162500000D03*
%TO.P,v_dg0_a53,2,B*%
%TO.N,Net-(U6-IN11)*%
X121300000Y-162500000D03*
%TO.P,v_dg0_a53,3,C*%
%TO.N,Net-(J1-Pin_2)*%
X126000000Y-162500000D03*
%TD*%
%TO.P,v_dg0_a1,1,A*%
%TO.N,Net-(J1-Pin_1)*%
X50987600Y-116500000D03*
%TO.P,v_dg0_a1,2,B*%
%TO.N,Net-(U3-IN2)*%
X55687600Y-116500000D03*
%TO.P,v_dg0_a1,3,C*%
%TO.N,Net-(J1-Pin_2)*%
X60387600Y-116500000D03*
%TD*%
%TO.P,v_dg0_a6,1,A*%
%TO.N,Net-(J1-Pin_1)*%
X132925300Y-116500000D03*
%TO.P,v_dg0_a6,2,B*%
%TO.N,Net-(U3-IN6)*%
X137625300Y-116500000D03*
%TO.P,v_dg0_a6,3,C*%
%TO.N,Net-(J1-Pin_2)*%
X142325300Y-116500000D03*
%TD*%
%TO.P,v_dg0_a59,1,A*%
%TO.N,Net-(J1-Pin_1)*%
X215000000Y-162500000D03*
%TO.P,v_dg0_a59,2,B*%
%TO.N,Net-(U6-IN8)*%
X219700000Y-162500000D03*
%TO.P,v_dg0_a59,3,C*%
%TO.N,Net-(J1-Pin_2)*%
X224400000Y-162500000D03*
%TD*%
%TO.P,v_dg0_a3,1,A*%
%TO.N,Net-(J1-Pin_1)*%
X83762700Y-116500000D03*
%TO.P,v_dg0_a3,2,B*%
%TO.N,Net-(U3-IN4)*%
X88462700Y-116500000D03*
%TO.P,v_dg0_a3,3,C*%
%TO.N,Net-(J1-Pin_2)*%
X93162700Y-116500000D03*
%TD*%
%TO.P,v_dg0_a37,1,A*%
%TO.N,Net-(J1-Pin_1)*%
X116535600Y-147500000D03*
%TO.P,v_dg0_a37,2,B*%
%TO.N,Net-(U5-IN11)*%
X121235600Y-147500000D03*
%TO.P,v_dg0_a37,3,C*%
%TO.N,Net-(J1-Pin_2)*%
X125935600Y-147500000D03*
%TD*%
%TO.P,v_dg0_a12,1,A*%
%TO.N,Net-(J1-Pin_1)*%
X231250700Y-116500000D03*
%TO.P,v_dg0_a12,2,B*%
%TO.N,Net-(U3-IN10)*%
X235950700Y-116500000D03*
%TO.P,v_dg0_a12,3,C*%
%TO.N,Net-(J1-Pin_2)*%
X240650700Y-116500000D03*
%TD*%
%TO.P,v_dg0_a18,1,A*%
%TO.N,Net-(J1-Pin_1)*%
X67374200Y-131500000D03*
%TO.P,v_dg0_a18,2,B*%
%TO.N,Net-(U4-IN5)*%
X72074200Y-131500000D03*
%TO.P,v_dg0_a18,3,C*%
%TO.N,Net-(J1-Pin_2)*%
X76774200Y-131500000D03*
%TD*%
%TO.P,v_dg0_a0,1,A*%
%TO.N,Net-(J1-Pin_1)*%
X34600000Y-116500000D03*
%TO.P,v_dg0_a0,2,B*%
%TO.N,Net-(U3-IN1)*%
X39300000Y-116500000D03*
%TO.P,v_dg0_a0,3,C*%
%TO.N,Net-(J1-Pin_2)*%
X44000000Y-116500000D03*
%TD*%
%TO.P,v_dg0_a35,1,A*%
%TO.N,Net-(J1-Pin_1)*%
X83761300Y-147500000D03*
%TO.P,v_dg0_a35,2,B*%
%TO.N,Net-(U5-IN7)*%
X88461300Y-147500000D03*
%TO.P,v_dg0_a35,3,C*%
%TO.N,Net-(J1-Pin_2)*%
X93161300Y-147500000D03*
%TD*%
%TO.P,v_dg0_a2,1,A*%
%TO.N,Net-(J1-Pin_1)*%
X67375100Y-116500000D03*
%TO.P,v_dg0_a2,2,B*%
%TO.N,Net-(U3-IN3)*%
X72075100Y-116500000D03*
%TO.P,v_dg0_a2,3,C*%
%TO.N,Net-(J1-Pin_2)*%
X76775100Y-116500000D03*
%TD*%
%TO.P,v_dg0_a30,1,A*%
%TO.N,Net-(J1-Pin_1)*%
X264019600Y-131500000D03*
%TO.P,v_dg0_a30,2,B*%
%TO.N,Net-(U4-IN14)*%
X268719600Y-131500000D03*
%TO.P,v_dg0_a30,3,C*%
%TO.N,Net-(J1-Pin_2)*%
X273419600Y-131500000D03*
%TD*%
%TO.P,v_dg0_a32,1,A*%
%TO.N,Net-(J1-Pin_1)*%
X34600000Y-147500000D03*
%TO.P,v_dg0_a32,2,B*%
%TO.N,Net-(U5-IN1)*%
X39300000Y-147500000D03*
%TO.P,v_dg0_a32,3,C*%
%TO.N,Net-(J1-Pin_2)*%
X44000000Y-147500000D03*
%TD*%
%TO.P,v_dg0_a9,1,A*%
%TO.N,Net-(J1-Pin_1)*%
X182088000Y-116500000D03*
%TO.P,v_dg0_a9,2,B*%
%TO.N,Net-(U3-IN11)*%
X186788000Y-116500000D03*
%TO.P,v_dg0_a9,3,C*%
%TO.N,Net-(J1-Pin_2)*%
X191488000Y-116500000D03*
%TD*%
%TO.P,v_dg0_a45,1,A*%
%TO.N,Net-(J1-Pin_1)*%
X247632400Y-147500000D03*
%TO.P,v_dg0_a45,2,B*%
%TO.N,Net-(U5-IN12)*%
X252332400Y-147500000D03*
%TO.P,v_dg0_a45,3,C*%
%TO.N,Net-(J1-Pin_2)*%
X257032400Y-147500000D03*
%TD*%
%TO.P,v_dg0_a52,1,A*%
%TO.N,Net-(J1-Pin_1)*%
X100200000Y-162500000D03*
%TO.P,v_dg0_a52,2,B*%
%TO.N,Net-(U6-IN9)*%
X104900000Y-162500000D03*
%TO.P,v_dg0_a52,3,C*%
%TO.N,Net-(J1-Pin_2)*%
X109600000Y-162500000D03*
%TD*%
%TO.P,v_dg0_a47,1,A*%
%TO.N,Net-(J1-Pin_1)*%
X280100000Y-147500000D03*
%TO.P,v_dg0_a47,2,B*%
%TO.N,Net-(U5-IN16)*%
X284800000Y-147500000D03*
%TO.P,v_dg0_a47,3,C*%
%TO.N,Net-(J1-Pin_2)*%
X289500000Y-147500000D03*
%TD*%
%TO.P,v_dg0_a4,1,A*%
%TO.N,Net-(J1-Pin_1)*%
X100150200Y-116500000D03*
%TO.P,v_dg0_a4,2,B*%
%TO.N,Net-(U3-IN5)*%
X104850200Y-116500000D03*
%TO.P,v_dg0_a4,3,C*%
%TO.N,Net-(J1-Pin_2)*%
X109550200Y-116500000D03*
%TD*%
%TO.P,v_dg0_a38,1,A*%
%TO.N,Net-(J1-Pin_1)*%
X132922700Y-147500000D03*
%TO.P,v_dg0_a38,2,B*%
%TO.N,Net-(U5-IN13)*%
X137622700Y-147500000D03*
%TO.P,v_dg0_a38,3,C*%
%TO.N,Net-(J1-Pin_2)*%
X142322700Y-147500000D03*
%TD*%
%TO.P,v_dg0_a51,1,A*%
%TO.N,Net-(J1-Pin_1)*%
X83800000Y-162500000D03*
%TO.P,v_dg0_a51,2,B*%
%TO.N,Net-(U6-IN7)*%
X88500000Y-162500000D03*
%TO.P,v_dg0_a51,3,C*%
%TO.N,Net-(J1-Pin_2)*%
X93200000Y-162500000D03*
%TD*%
%TO.P,v_dg0_a43,1,A*%
%TO.N,Net-(J1-Pin_1)*%
X214858200Y-147500000D03*
%TO.P,v_dg0_a43,2,B*%
%TO.N,Net-(U5-IN8)*%
X219558200Y-147500000D03*
%TO.P,v_dg0_a43,3,C*%
%TO.N,Net-(J1-Pin_2)*%
X224258200Y-147500000D03*
%TD*%
%TO.P,v_dg0_a44,1,A*%
%TO.N,Net-(J1-Pin_1)*%
X231245300Y-147500000D03*
%TO.P,v_dg0_a44,2,B*%
%TO.N,Net-(U5-IN10)*%
X235945300Y-147500000D03*
%TO.P,v_dg0_a44,3,C*%
%TO.N,Net-(J1-Pin_2)*%
X240645300Y-147500000D03*
%TD*%
%TO.P,v_dg0_a5,1,A*%
%TO.N,Net-(J1-Pin_1)*%
X116537800Y-116500000D03*
%TO.P,v_dg0_a5,2,B*%
%TO.N,Net-(U3-IN7)*%
X121237800Y-116500000D03*
%TO.P,v_dg0_a5,3,C*%
%TO.N,Net-(J1-Pin_2)*%
X125937800Y-116500000D03*
%TD*%
%TO.P,v_dg0_a23,1,A*%
%TO.N,Net-(J1-Pin_1)*%
X149309800Y-131500000D03*
%TO.P,v_dg0_a23,2,B*%
%TO.N,Net-(U4-IN15)*%
X154009800Y-131500000D03*
%TO.P,v_dg0_a23,3,C*%
%TO.N,Net-(J1-Pin_2)*%
X158709800Y-131500000D03*
%TD*%
%TO.P,v_dg0_a49,1,A*%
%TO.N,Net-(J1-Pin_1)*%
X51000000Y-162500000D03*
%TO.P,v_dg0_a49,2,B*%
%TO.N,Net-(U6-IN3)*%
X55700000Y-162500000D03*
%TO.P,v_dg0_a49,3,C*%
%TO.N,Net-(J1-Pin_2)*%
X60400000Y-162500000D03*
%TD*%
%TO.P,v_dg0_a17,1,A*%
%TO.N,Net-(J1-Pin_1)*%
X50987100Y-131500000D03*
%TO.P,v_dg0_a17,2,B*%
%TO.N,Net-(U4-IN3)*%
X55687100Y-131500000D03*
%TO.P,v_dg0_a17,3,C*%
%TO.N,Net-(J1-Pin_2)*%
X60387100Y-131500000D03*
%TD*%
%TO.P,v_dg0_a56,1,A*%
%TO.N,Net-(J1-Pin_1)*%
X165800000Y-162500000D03*
%TO.P,v_dg0_a56,2,B*%
%TO.N,Net-(U6-IN2)*%
X170500000Y-162500000D03*
%TO.P,v_dg0_a56,3,C*%
%TO.N,Net-(J1-Pin_2)*%
X175200000Y-162500000D03*
%TD*%
%TO.P,v_dg0_a54,1,A*%
%TO.N,Net-(J1-Pin_1)*%
X133000000Y-162500000D03*
%TO.P,v_dg0_a54,2,B*%
%TO.N,Net-(U6-IN13)*%
X137700000Y-162500000D03*
%TO.P,v_dg0_a54,3,C*%
%TO.N,Net-(J1-Pin_2)*%
X142400000Y-162500000D03*
%TD*%
%TO.P,v_dg0_a63,1,A*%
%TO.N,Net-(J1-Pin_1)*%
X280600000Y-162500000D03*
%TO.P,v_dg0_a63,2,B*%
%TO.N,Net-(U6-IN16)*%
X285300000Y-162500000D03*
%TO.P,v_dg0_a63,3,C*%
%TO.N,Net-(J1-Pin_2)*%
X290000000Y-162500000D03*
%TD*%
D14*
%TO.N,Net-(U5-IN15)*%
X155769000Y-75725800D03*
%TO.N,Net-(U5-IN16)*%
X177073000Y-141474000D03*
X176687000Y-76354000D03*
%TO.N,Net-(U6-IN1)*%
X41544900Y-71045600D03*
%TO.N,Net-(U6-IN4)*%
X196376000Y-68412900D03*
%TO.N,Net-(U6-IN9)*%
X243942000Y-76239700D03*
X243978000Y-159112000D03*
%TO.N,Net-(U6-IN3)*%
X68613400Y-69286900D03*
%TO.N,Net-(U6-IN8)*%
X222388000Y-67555100D03*
%TO.N,Net-(U6-IN11)*%
X240671000Y-77348200D03*
X238966000Y-159714000D03*
%TO.N,Net-(U6-IN14)*%
X271087000Y-79156200D03*
%TO.N,Net-(U6-IN15)*%
X156985000Y-81331800D03*
%TO.N,Net-(U6-IN10)*%
X240675000Y-76444200D03*
%TO.N,Net-(U6-IN7)*%
X232587000Y-66824600D03*
X232934000Y-154033000D03*
%TO.N,Net-(U6-IN16)*%
X271911000Y-78528700D03*
%TO.N,Net-(U6-IN6)*%
X205521000Y-63975300D03*
%TO.N,Net-(U6-IN2)*%
X187034000Y-160634000D03*
X196518000Y-63578700D03*
%TO.N,Net-(U6-IN5)*%
X233714000Y-66751700D03*
X233714000Y-153344000D03*
%TO.N,Net-(U6-IN12)*%
X244911000Y-78050600D03*
%TO.N,Net-(U5-IN13)*%
X140048000Y-73387600D03*
%TO.N,Net-(U5-IN11)*%
X136590000Y-72584200D03*
%TO.N,Net-(U5-IN6)*%
X200826000Y-66596800D03*
%TO.N,Net-(U5-IN5)*%
X178125000Y-144902000D03*
X179330000Y-66967300D03*
%TO.N,Net-(U5-IN1)*%
X184081000Y-63760300D03*
X178576000Y-143660000D03*
%TO.N,Net-(U5-IN10)*%
X185262000Y-76239700D03*
X188524000Y-145362000D03*
%TO.N,Net-(U5-IN4)*%
X184070000Y-67228900D03*
%TO.N,Net-(U5-IN9)*%
X106621000Y-72041500D03*
%TO.N,Net-(U5-IN14)*%
X180297000Y-76241300D03*
X184440000Y-144157000D03*
%TO.N,Net-(U5-IN7)*%
X177512000Y-145737000D03*
X177773000Y-66751700D03*
%TO.N,Net-(U5-IN2)*%
X172930000Y-63559400D03*
%TO.N,Net-(U5-IN8)*%
X215948000Y-67321900D03*
%TO.N,Net-(U5-IN3)*%
X175248000Y-67041400D03*
X173322000Y-144300000D03*
%TO.N,Net-(U5-IN12)*%
X181610000Y-76239700D03*
X184991000Y-144767000D03*
%TO.N,Net-(U4-IN15)*%
X151663000Y-82915600D03*
%TO.N,Net-(U4-IN8)*%
X140673000Y-67965400D03*
X140673000Y-123669000D03*
%TO.N,Net-(U4-IN4)*%
X145515000Y-67965400D03*
X145515000Y-129135000D03*
%TO.N,Net-(U4-IN9)*%
X116474000Y-76149300D03*
%TO.N,Net-(U4-IN12)*%
X249971000Y-81797400D03*
%TO.N,Net-(U4-IN13)*%
X135275000Y-81565400D03*
%TO.N,Net-(U4-IN6)*%
X115378000Y-126636000D03*
X117656000Y-66751700D03*
%TO.N,Net-(U4-IN11)*%
X122894000Y-76239700D03*
%TO.N,Net-(U4-IN5)*%
X73620000Y-66669000D03*
%TO.N,Net-(U4-IN2)*%
X172073000Y-67363700D03*
%TO.N,Net-(U4-IN7)*%
X91074100Y-63803500D03*
%TO.N,Net-(U4-IN16)*%
X286800000Y-85091200D03*
%TO.N,Net-(U4-IN10)*%
X229384000Y-80861900D03*
X229384000Y-129135000D03*
%TO.N,Net-(U4-IN14)*%
X270386000Y-82426600D03*
%TO.N,Net-(U4-IN3)*%
X119210000Y-63643400D03*
X103789000Y-123669000D03*
X57595700Y-123669000D03*
%TO.N,Net-(U4-IN1)*%
X114220000Y-129034000D03*
X123736000Y-63555600D03*
%TO.N,Net-(U3-IN15)*%
X211094000Y-70512200D03*
%TO.N,Net-(U3-IN5)*%
X96513700Y-68213500D03*
%TO.N,Net-(U3-IN12)*%
X252338000Y-71906800D03*
%TO.N,Net-(U3-IN11)*%
X185247000Y-72126400D03*
%TO.N,Net-(U3-IN2)*%
X67905000Y-66965100D03*
%TO.N,Net-(U3-IN3)*%
X67068100Y-66966300D03*
%TO.N,Net-(U3-IN13)*%
X203176000Y-91026200D03*
%TO.N,Net-(U3-IN4)*%
X88462700Y-67781000D03*
%TO.N,Net-(U3-IN14)*%
X256259000Y-71241300D03*
%TO.N,Net-(U3-IN7)*%
X61555000Y-66988400D03*
X61555000Y-108300000D03*
%TO.N,Net-(U3-IN10)*%
X235951000Y-89310600D03*
%TO.N,Net-(U3-IN16)*%
X273860000Y-69898300D03*
%TO.N,Net-(U3-IN1)*%
X39300000Y-63695600D03*
%TO.N,Net-(U3-IN6)*%
X62825000Y-66958900D03*
X137625000Y-96961200D03*
X67295800Y-96961200D03*
%TO.N,Net-(U3-IN8)*%
X152284000Y-107698000D03*
X59973000Y-66979200D03*
X59973000Y-107698000D03*
%TO.N,Net-(U3-IN9)*%
X160392000Y-72910300D03*
%TO.N,Net-(J1-Pin_15)*%
X18831000Y-70253700D03*
%TO.N,Net-(J1-Pin_7)*%
X197224000Y-107045000D03*
X197224000Y-64630500D03*
%TO.N,Net-(J1-Pin_8)*%
X170882000Y-105506000D03*
X170882000Y-66751700D03*
%TO.N,Net-(J1-Pin_9)*%
X79693500Y-64530300D03*
X79693500Y-102966000D03*
%TO.N,Net-(J1-Pin_10)*%
X20488400Y-67287800D03*
%TO.N,Net-(J1-Pin_6)*%
X22294000Y-61880200D03*
%TO.N,Net-(J1-Pin_5)*%
X109612000Y-65216400D03*
X60833700Y-63700000D03*
X60663900Y-111104000D03*
X109612000Y-62398400D03*
%TO.N,Net-(J1-Pin_4)*%
X74451100Y-113519000D03*
X74660400Y-66917600D03*
X74660400Y-61796700D03*
%TO.N,Net-(J1-Pin_3)*%
X70997800Y-77083000D03*
X70535800Y-114385000D03*
%TO.N,Net-(J1-Pin_1)*%
X171855000Y-75422300D03*
X124775000Y-66956800D03*
X58166700Y-62494900D03*
X117846000Y-80180400D03*
X231245000Y-76449900D03*
X241945000Y-66953300D03*
X58166700Y-76345700D03*
X172123000Y-63498400D03*
%TO.N,Net-(J1-Pin_2)*%
X72740200Y-76452900D03*
X175102000Y-76846600D03*
%TD*%
D15*
%TO.N,Net-(U5-IN15)*%
X169926000Y-75725800D02*
X155769000Y-75725800D01*
X172403000Y-73248300D02*
X169926000Y-75725800D01*
X177396000Y-73248300D02*
X172403000Y-73248300D01*
X178380000Y-74232800D02*
X177396000Y-73248300D01*
X178380000Y-74744000D02*
X178380000Y-74232800D01*
%TO.N,Net-(U5-IN16)*%
X278774000Y-141474000D02*
X177073000Y-141474000D01*
X284800000Y-147500000D02*
X278774000Y-141474000D01*
X176802000Y-76239700D02*
X176687000Y-76354000D01*
X177110000Y-76239700D02*
X176802000Y-76239700D01*
X177110000Y-74744000D02*
X177110000Y-76239700D01*
%TO.N,Net-(U6-IN1)*%
X58232100Y-71045600D02*
X41544900Y-71045600D01*
X59389100Y-69888600D02*
X58232100Y-71045600D01*
X68862600Y-69888600D02*
X59389100Y-69888600D01*
X69033500Y-69717700D02*
X68862600Y-69888600D01*
X97611000Y-69717700D02*
X69033500Y-69717700D01*
X97832100Y-69496600D02*
X97611000Y-69717700D01*
X105474000Y-69496600D02*
X97832100Y-69496600D01*
X105540000Y-69431000D02*
X105474000Y-69496600D01*
X107701000Y-69431000D02*
X105540000Y-69431000D01*
X107767000Y-69496600D02*
X107701000Y-69431000D01*
X121907000Y-69496600D02*
X107767000Y-69496600D01*
X121983000Y-69572200D02*
X121907000Y-69496600D01*
X139572000Y-69572200D02*
X121983000Y-69572200D01*
X139648000Y-69496600D02*
X139572000Y-69572200D01*
X170260000Y-69496600D02*
X139648000Y-69496600D01*
X170525000Y-69231300D02*
X170260000Y-69496600D01*
X179570000Y-69231300D02*
X170525000Y-69231300D01*
X179835000Y-69496600D02*
X179570000Y-69231300D01*
X237930000Y-69496600D02*
X179835000Y-69496600D01*
X240675000Y-66751700D02*
X237930000Y-69496600D01*
X240675000Y-65256000D02*
X240675000Y-66751700D01*
%TO.N,Net-(U6-IN4)*%
X235204000Y-68412900D02*
X196376000Y-68412900D01*
X236865000Y-66751700D02*
X235204000Y-68412900D01*
X236865000Y-65256000D02*
X236865000Y-66751700D01*
%TO.N,Net-(U6-IN9)*%
X241945000Y-76239700D02*
X243942000Y-76239700D01*
X241945000Y-74744000D02*
X241945000Y-76239700D01*
X108288000Y-159112000D02*
X104900000Y-162500000D01*
X243978000Y-159112000D02*
X108288000Y-159112000D01*
%TO.N,Net-(U6-IN3)*%
X97473800Y-69286900D02*
X68613400Y-69286900D01*
X97665800Y-69094900D02*
X97473800Y-69286900D01*
X105308000Y-69094900D02*
X97665800Y-69094900D01*
X105374000Y-69029300D02*
X105308000Y-69094900D01*
X122008000Y-69029300D02*
X105374000Y-69029300D01*
X122149000Y-69170500D02*
X122008000Y-69029300D01*
X139406000Y-69170500D02*
X122149000Y-69170500D01*
X139547000Y-69029300D02*
X139406000Y-69170500D01*
X170159000Y-69029300D02*
X139547000Y-69029300D01*
X170359000Y-68829600D02*
X170159000Y-69029300D01*
X179736000Y-68829600D02*
X170359000Y-68829600D01*
X179936000Y-69029300D02*
X179736000Y-68829600D01*
X180978000Y-69029300D02*
X179936000Y-69029300D01*
X181043000Y-69094800D02*
X180978000Y-69029300D01*
X235792000Y-69094800D02*
X181043000Y-69094800D01*
X238135000Y-66751700D02*
X235792000Y-69094800D01*
X238135000Y-65256000D02*
X238135000Y-66751700D01*
%TO.N,Net-(U6-IN8)*%
X230982000Y-67555100D02*
X222388000Y-67555100D01*
X231785000Y-66751700D02*
X230982000Y-67555100D01*
X231785000Y-65256000D02*
X231785000Y-66751700D01*
%TO.N,Net-(U6-IN11)*%
X124086000Y-159714000D02*
X238966000Y-159714000D01*
X121300000Y-162500000D02*
X124086000Y-159714000D01*
X239562000Y-76239700D02*
X240671000Y-77348200D01*
X239405000Y-76239700D02*
X239562000Y-76239700D01*
X239405000Y-74744000D02*
X239405000Y-76239700D01*
%TO.N,Net-(U6-IN14)*%
X238512000Y-79156200D02*
X271087000Y-79156200D01*
X235595000Y-76239700D02*
X238512000Y-79156200D01*
X235595000Y-74744000D02*
X235595000Y-76239700D01*
%TO.N,Net-(U6-IN15)*%
X234325000Y-76771900D02*
X234325000Y-74744000D01*
X229633000Y-81463600D02*
X234325000Y-76771900D01*
X157117000Y-81463600D02*
X229633000Y-81463600D01*
X156985000Y-81331800D02*
X157117000Y-81463600D01*
%TO.N,Net-(U6-IN10)*%
X240675000Y-76444200D02*
X240675000Y-74744000D01*
%TO.N,Net-(U6-IN7)*%
X96967300Y-154033000D02*
X232934000Y-154033000D01*
X88500000Y-162500000D02*
X96967300Y-154033000D01*
X232660000Y-66751700D02*
X232587000Y-66824600D01*
X233055000Y-66751700D02*
X232660000Y-66751700D01*
X233055000Y-65256000D02*
X233055000Y-66751700D01*
%TO.N,Net-(U6-IN16)*%
X245440000Y-78528700D02*
X271911000Y-78528700D01*
X245290000Y-78679300D02*
X245440000Y-78528700D01*
X239037000Y-78679300D02*
X245290000Y-78679300D01*
X236230000Y-75872100D02*
X239037000Y-78679300D01*
X236230000Y-73639400D02*
X236230000Y-75872100D01*
X235839000Y-73248300D02*
X236230000Y-73639400D01*
X233055000Y-73248300D02*
X235839000Y-73248300D01*
X233055000Y-74744000D02*
X233055000Y-73248300D01*
%TO.N,Net-(U6-IN6)*%
X205736000Y-63760300D02*
X205521000Y-63975300D01*
X234325000Y-63760300D02*
X205736000Y-63760300D01*
X234325000Y-65256000D02*
X234325000Y-63760300D01*
%TO.N,Net-(U6-IN2)*%
X172366000Y-160634000D02*
X187034000Y-160634000D01*
X170500000Y-162500000D02*
X172366000Y-160634000D01*
X196738000Y-63358600D02*
X196518000Y-63578700D01*
X239003000Y-63358600D02*
X196738000Y-63358600D01*
X239405000Y-63760300D02*
X239003000Y-63358600D01*
X239405000Y-65256000D02*
X239405000Y-63760300D01*
%TO.N,Net-(U6-IN5)*%
X235595000Y-66751700D02*
X233714000Y-66751700D01*
X235595000Y-65256000D02*
X235595000Y-66751700D01*
X81256300Y-153344000D02*
X233714000Y-153344000D01*
X72100000Y-162500000D02*
X81256300Y-153344000D01*
%TO.N,Net-(U6-IN12)*%
X239946000Y-78050600D02*
X244911000Y-78050600D01*
X238135000Y-76239700D02*
X239946000Y-78050600D01*
X238135000Y-74744000D02*
X238135000Y-76239700D01*
%TO.N,Net-(U5-IN13)*%
X140172000Y-73512000D02*
X140048000Y-73387600D01*
X170788000Y-73512000D02*
X140172000Y-73512000D01*
X171856000Y-72444900D02*
X170788000Y-73512000D01*
X178239000Y-72444900D02*
X171856000Y-72444900D01*
X178641000Y-72846600D02*
X178239000Y-72444900D01*
X180518000Y-72846600D02*
X178641000Y-72846600D01*
X180920000Y-73248300D02*
X180518000Y-72846600D01*
X180920000Y-74744000D02*
X180920000Y-73248300D01*
%TO.N,Net-(U5-IN11)*%
X136790000Y-72384100D02*
X136590000Y-72584200D01*
X140736000Y-72384100D02*
X136790000Y-72384100D01*
X140812000Y-72308500D02*
X140736000Y-72384100D01*
X171424000Y-72308500D02*
X140812000Y-72308500D01*
X171689000Y-72043200D02*
X171424000Y-72308500D01*
X178406000Y-72043200D02*
X171689000Y-72043200D01*
X178671000Y-72308500D02*
X178406000Y-72043200D01*
X181587000Y-72308500D02*
X178671000Y-72308500D01*
X182526000Y-73248300D02*
X181587000Y-72308500D01*
X183460000Y-73248300D02*
X182526000Y-73248300D01*
X183460000Y-74744000D02*
X183460000Y-73248300D01*
%TO.N,Net-(U5-IN6)*%
X178380000Y-66868000D02*
X178380000Y-65256000D01*
X179136000Y-67624500D02*
X178380000Y-66868000D01*
X180235000Y-67624500D02*
X179136000Y-67624500D01*
X180358000Y-67747200D02*
X180235000Y-67624500D01*
X183680000Y-67747200D02*
X180358000Y-67747200D01*
X183776000Y-67842800D02*
X183680000Y-67747200D01*
X191628000Y-67842800D02*
X183776000Y-67842800D01*
X192874000Y-66596800D02*
X191628000Y-67842800D01*
X200826000Y-66596800D02*
X192874000Y-66596800D01*
%TO.N,Net-(U5-IN5)*%
X74672300Y-144902000D02*
X178125000Y-144902000D01*
X72074200Y-147500000D02*
X74672300Y-144902000D01*
X179650000Y-66751700D02*
X179650000Y-65256000D01*
X179546000Y-66751700D02*
X179650000Y-66751700D01*
X179330000Y-66967300D02*
X179546000Y-66751700D01*
%TO.N,Net-(U5-IN1)*%
X43139500Y-143660000D02*
X178576000Y-143660000D01*
X39300000Y-147500000D02*
X43139500Y-143660000D01*
X184730000Y-63760300D02*
X184081000Y-63760300D01*
X184730000Y-65256000D02*
X184730000Y-63760300D01*
%TO.N,Net-(U5-IN10)*%
X184730000Y-76239700D02*
X185262000Y-76239700D01*
X184730000Y-74744000D02*
X184730000Y-76239700D01*
X235945000Y-147500000D02*
X234876500Y-146431000D01*
X233808000Y-145362000D02*
X188524000Y-145362000D01*
X234876500Y-146431000D02*
X233808000Y-145362000D01*
X235945300Y-147499800D02*
X235945300Y-147500000D01*
X234876500Y-146431000D02*
X235945300Y-147499800D01*
%TO.N,Net-(U5-IN4)*%
X181397000Y-67228900D02*
X184070000Y-67228900D01*
X180920000Y-66751700D02*
X181397000Y-67228900D01*
X180920000Y-65256000D02*
X180920000Y-66751700D01*
%TO.N,Net-(U5-IN9)*%
X106680000Y-71982400D02*
X106621000Y-72041500D01*
X140570000Y-71982400D02*
X106680000Y-71982400D01*
X140646000Y-71906800D02*
X140570000Y-71982400D01*
X171258000Y-71906800D02*
X140646000Y-71906800D01*
X171523000Y-71641500D02*
X171258000Y-71906800D01*
X178572000Y-71641500D02*
X171523000Y-71641500D01*
X178837000Y-71906800D02*
X178572000Y-71641500D01*
X182158000Y-71906800D02*
X178837000Y-71906800D01*
X182888000Y-72636800D02*
X182158000Y-71906800D01*
X184888000Y-72636800D02*
X182888000Y-72636800D01*
X185499000Y-73248300D02*
X184888000Y-72636800D01*
X186000000Y-73248300D02*
X185499000Y-73248300D01*
X186000000Y-74744000D02*
X186000000Y-73248300D01*
%TO.N,Net-(U5-IN14)*%
X180296000Y-76239700D02*
X180297000Y-76241300D01*
X179650000Y-76239700D02*
X180296000Y-76239700D01*
X179650000Y-74744000D02*
X179650000Y-76239700D01*
X265377000Y-144157000D02*
X268719600Y-147499600D01*
X184440000Y-144157000D02*
X265377000Y-144157000D01*
X268719600Y-147499600D02*
X268720000Y-147500000D01*
X268719600Y-147499600D02*
X268719600Y-147500000D01*
%TO.N,Net-(U5-IN7)*%
X90224100Y-145737000D02*
X177512000Y-145737000D01*
X88461300Y-147500000D02*
X90224100Y-145737000D01*
X177110000Y-66751700D02*
X177773000Y-66751700D01*
X177110000Y-65256000D02*
X177110000Y-66751700D01*
%TO.N,Net-(U5-IN2)*%
X173131000Y-63358600D02*
X172930000Y-63559400D01*
X183058000Y-63358600D02*
X173131000Y-63358600D01*
X183460000Y-63760300D02*
X183058000Y-63358600D01*
X183460000Y-65256000D02*
X183460000Y-63760300D01*
%TO.N,Net-(U5-IN8)*%
X175840000Y-66751700D02*
X175840000Y-65256000D01*
X177114000Y-68026200D02*
X175840000Y-66751700D01*
X180068000Y-68026200D02*
X177114000Y-68026200D01*
X180191000Y-68148900D02*
X180068000Y-68026200D01*
X183514000Y-68148900D02*
X180191000Y-68148900D01*
X183610000Y-68244500D02*
X183514000Y-68148900D01*
X191866000Y-68244500D02*
X183610000Y-68244500D01*
X192789000Y-67321900D02*
X191866000Y-68244500D01*
X215948000Y-67321900D02*
X192789000Y-67321900D01*
%TO.N,Net-(U5-IN3)*%
X175248000Y-64108400D02*
X175248000Y-67041400D01*
X175596000Y-63760300D02*
X175248000Y-64108400D01*
X182190000Y-63760300D02*
X175596000Y-63760300D01*
X182190000Y-65256000D02*
X182190000Y-63760300D01*
X58886900Y-144300000D02*
X173322000Y-144300000D01*
X55687100Y-147500000D02*
X58886900Y-144300000D01*
%TO.N,Net-(U5-IN12)*%
X182190000Y-76239700D02*
X181610000Y-76239700D01*
X182190000Y-74744000D02*
X182190000Y-76239700D01*
X249511000Y-144679000D02*
X250921500Y-146089500D01*
X185079000Y-144679000D02*
X249511000Y-144679000D01*
X184991000Y-144767000D02*
X185079000Y-144679000D01*
X250921500Y-146089500D02*
X252332000Y-147500000D01*
X250921900Y-146089500D02*
X252332400Y-147500000D01*
X250921500Y-146089500D02*
X250921900Y-146089500D01*
%TO.N,Net-(U4-IN15)*%
X123786000Y-82915600D02*
X151663000Y-82915600D01*
X117110000Y-76239700D02*
X123786000Y-82915600D01*
X117110000Y-74744000D02*
X117110000Y-76239700D01*
%TO.N,Net-(U4-IN8)*%
X139475000Y-67965400D02*
X140673000Y-67965400D01*
X139073000Y-68367100D02*
X139475000Y-67965400D01*
X122482000Y-68367100D02*
X139073000Y-68367100D01*
X122080000Y-67965400D02*
X122482000Y-68367100D01*
X115784000Y-67965400D02*
X122080000Y-67965400D01*
X114570000Y-66751700D02*
X115784000Y-67965400D01*
X114570000Y-65256000D02*
X114570000Y-66751700D01*
X219558000Y-131500000D02*
X217933100Y-129875100D01*
X211727000Y-123669000D02*
X140673000Y-123669000D01*
X217933100Y-129875100D02*
X211727000Y-123669000D01*
X217933300Y-129875100D02*
X219558200Y-131500000D01*
X217933100Y-129875100D02*
X217933300Y-129875100D01*
%TO.N,Net-(U4-IN4)*%
X119650000Y-66751700D02*
X119650000Y-65256000D01*
X121529000Y-66751700D02*
X119650000Y-66751700D01*
X122743000Y-67965400D02*
X121529000Y-66751700D01*
X138706000Y-67965400D02*
X122743000Y-67965400D01*
X139107000Y-67563700D02*
X138706000Y-67965400D01*
X139953000Y-67563700D02*
X139107000Y-67563700D01*
X140153000Y-67363700D02*
X139953000Y-67563700D01*
X141789000Y-67363700D02*
X140153000Y-67363700D01*
X142391000Y-67965400D02*
X141789000Y-67363700D01*
X145515000Y-67965400D02*
X142391000Y-67965400D01*
X184419000Y-129135000D02*
X145515000Y-129135000D01*
X186784000Y-131500000D02*
X184419000Y-129135000D01*
%TO.N,Net-(U4-IN9)*%
X116474000Y-73640500D02*
X116474000Y-76149300D01*
X116866000Y-73248300D02*
X116474000Y-73640500D01*
X124730000Y-73248300D02*
X116866000Y-73248300D01*
X124730000Y-74744000D02*
X124730000Y-73248300D01*
%TO.N,Net-(U4-IN12)*%
X120920000Y-76239700D02*
X120920000Y-74744000D01*
X124051000Y-79370900D02*
X120920000Y-76239700D01*
X153138000Y-79370900D02*
X124051000Y-79370900D01*
X155706000Y-81938500D02*
X153138000Y-79370900D01*
X249830000Y-81938500D02*
X155706000Y-81938500D01*
X249971000Y-81797400D02*
X249830000Y-81938500D01*
%TO.N,Net-(U4-IN13)*%
X124976000Y-81565400D02*
X135275000Y-81565400D01*
X119650000Y-76239700D02*
X124976000Y-81565400D01*
X119650000Y-74744000D02*
X119650000Y-76239700D01*
%TO.N,Net-(U4-IN6)*%
X117110000Y-66751700D02*
X117656000Y-66751700D01*
X117110000Y-65256000D02*
X117110000Y-66751700D01*
X198307000Y-126636000D02*
X203171000Y-131500000D01*
X115378000Y-126636000D02*
X198307000Y-126636000D01*
X203171100Y-131500000D02*
X203171000Y-131500000D01*
%TO.N,Net-(U4-IN11)*%
X122190000Y-76239700D02*
X122894000Y-76239700D01*
X122190000Y-74744000D02*
X122190000Y-76239700D01*
%TO.N,Net-(U4-IN5)*%
X118380000Y-63760300D02*
X118380000Y-65256000D01*
X117822000Y-63201800D02*
X118380000Y-63760300D01*
X110228000Y-63201800D02*
X117822000Y-63201800D01*
X110028000Y-63401800D02*
X110228000Y-63201800D01*
X109197000Y-63401800D02*
X110028000Y-63401800D01*
X108928000Y-63132200D02*
X109197000Y-63401800D01*
X74567200Y-63132200D02*
X108928000Y-63132200D01*
X73620000Y-64079400D02*
X74567200Y-63132200D01*
X73620000Y-66669000D02*
X73620000Y-64079400D01*
%TO.N,Net-(U4-IN2)*%
X142559000Y-67363700D02*
X172073000Y-67363700D01*
X142157000Y-66962000D02*
X142559000Y-67363700D01*
X139987000Y-66962000D02*
X142157000Y-66962000D01*
X139787000Y-67162000D02*
X139987000Y-66962000D01*
X138941000Y-67162000D02*
X139787000Y-67162000D01*
X138539000Y-67563700D02*
X138941000Y-67162000D01*
X123002000Y-67563700D02*
X138539000Y-67563700D01*
X122190000Y-66751700D02*
X123002000Y-67563700D01*
X122190000Y-65256000D02*
X122190000Y-66751700D01*
%TO.N,Net-(U4-IN7)*%
X110194000Y-63803500D02*
X91074100Y-63803500D01*
X110238000Y-63760300D02*
X110194000Y-63803500D01*
X115840000Y-63760300D02*
X110238000Y-63760300D01*
X115840000Y-65256000D02*
X115840000Y-63760300D01*
%TO.N,Net-(U4-IN16)*%
X124473000Y-85091200D02*
X286800000Y-85091200D01*
X115840000Y-76458100D02*
X124473000Y-85091200D01*
X115840000Y-74744000D02*
X115840000Y-76458100D01*
%TO.N,Net-(U4-IN10)*%
X123460000Y-75231900D02*
X123460000Y-74744000D01*
X125499000Y-77271000D02*
X123460000Y-75231900D01*
X165198000Y-77271000D02*
X125499000Y-77271000D01*
X168789000Y-80861900D02*
X165198000Y-77271000D01*
X229384000Y-80861900D02*
X168789000Y-80861900D01*
X235945000Y-131500000D02*
X234762500Y-130317500D01*
X233580000Y-129135000D02*
X229384000Y-129135000D01*
X234762500Y-130317500D02*
X233580000Y-129135000D01*
X234762800Y-130317500D02*
X235945300Y-131500000D01*
X234762500Y-130317500D02*
X234762800Y-130317500D01*
%TO.N,Net-(U4-IN14)*%
X155403000Y-82426600D02*
X270386000Y-82426600D01*
X155144000Y-82167100D02*
X155403000Y-82426600D01*
X124307000Y-82167100D02*
X155144000Y-82167100D01*
X118380000Y-76239700D02*
X124307000Y-82167100D01*
X118380000Y-74744000D02*
X118380000Y-76239700D01*
%TO.N,Net-(U4-IN3)*%
X57595700Y-123669000D02*
X103789000Y-123669000D01*
X119327000Y-63760300D02*
X119210000Y-63643400D01*
X120920000Y-63760300D02*
X119327000Y-63760300D01*
X120920000Y-65256000D02*
X120920000Y-63760300D01*
%TO.N,Net-(U4-IN1)*%
X123460000Y-63760300D02*
X123460000Y-65256000D01*
X123532000Y-63760300D02*
X123460000Y-63760300D01*
X123736000Y-63555600D02*
X123532000Y-63760300D01*
X41766400Y-129034000D02*
X114220000Y-129034000D01*
X39300000Y-131500000D02*
X41766400Y-129034000D01*
%TO.N,Net-(U3-IN15)*%
X62825000Y-73248300D02*
X62825000Y-74744000D01*
X65381300Y-70692000D02*
X62825000Y-73248300D01*
X97772700Y-70692000D02*
X65381300Y-70692000D01*
X98164700Y-70300000D02*
X97772700Y-70692000D01*
X105807000Y-70300000D02*
X98164700Y-70300000D01*
X105873000Y-70234400D02*
X105807000Y-70300000D01*
X107369000Y-70234400D02*
X105873000Y-70234400D01*
X107434000Y-70300000D02*
X107369000Y-70234400D01*
X121575000Y-70300000D02*
X107434000Y-70300000D01*
X121650000Y-70375600D02*
X121575000Y-70300000D01*
X139905000Y-70375600D02*
X121650000Y-70375600D01*
X139980000Y-70300000D02*
X139905000Y-70375600D01*
X170592000Y-70300000D02*
X139980000Y-70300000D01*
X170858000Y-70034700D02*
X170592000Y-70300000D01*
X179237000Y-70034700D02*
X170858000Y-70034700D01*
X179502000Y-70300000D02*
X179237000Y-70034700D01*
X210882000Y-70300000D02*
X179502000Y-70300000D01*
X211094000Y-70512200D02*
X210882000Y-70300000D01*
%TO.N,Net-(U3-IN5)*%
X96343600Y-68383600D02*
X96513700Y-68213500D01*
X72645800Y-68383600D02*
X96343600Y-68383600D01*
X72475700Y-68213500D02*
X72645800Y-68383600D01*
X65556800Y-68213500D02*
X72475700Y-68213500D01*
X64095000Y-66751700D02*
X65556800Y-68213500D01*
X64095000Y-65256000D02*
X64095000Y-66751700D01*
%TO.N,Net-(U3-IN12)*%
X66635000Y-73248300D02*
X66635000Y-74744000D01*
X68378200Y-71505100D02*
X66635000Y-73248300D01*
X98095700Y-71505100D02*
X68378200Y-71505100D01*
X98497400Y-71103400D02*
X98095700Y-71505100D01*
X106140000Y-71103400D02*
X98497400Y-71103400D01*
X106205000Y-71037800D02*
X106140000Y-71103400D01*
X107036000Y-71037800D02*
X106205000Y-71037800D01*
X107102000Y-71103400D02*
X107036000Y-71037800D01*
X121242000Y-71103400D02*
X107102000Y-71103400D01*
X121318000Y-71179000D02*
X121242000Y-71103400D01*
X140238000Y-71179000D02*
X121318000Y-71179000D01*
X140313000Y-71103400D02*
X140238000Y-71179000D01*
X170925000Y-71103400D02*
X140313000Y-71103400D01*
X171190000Y-70838100D02*
X170925000Y-71103400D01*
X178904000Y-70838100D02*
X171190000Y-70838100D01*
X179170000Y-71103400D02*
X178904000Y-70838100D01*
X182567000Y-71103400D02*
X179170000Y-71103400D01*
X182880000Y-71415900D02*
X182567000Y-71103400D01*
X182962000Y-71415900D02*
X182880000Y-71415900D01*
X183074000Y-71303600D02*
X182962000Y-71415900D01*
X183407000Y-71303600D02*
X183074000Y-71303600D01*
X183608000Y-71505100D02*
X183407000Y-71303600D01*
X185730000Y-71505100D02*
X183608000Y-71505100D01*
X186132000Y-71906800D02*
X185730000Y-71505100D01*
X252338000Y-71906800D02*
X186132000Y-71906800D01*
%TO.N,Net-(U3-IN11)*%
X67905000Y-73248300D02*
X67905000Y-74744000D01*
X68347500Y-72805800D02*
X67905000Y-73248300D01*
X70570600Y-72805800D02*
X68347500Y-72805800D01*
X70729000Y-72964200D02*
X70570600Y-72805800D01*
X70729100Y-72964200D02*
X70729000Y-72964200D01*
X71167800Y-72525500D02*
X70729100Y-72964200D01*
X71167800Y-72454700D02*
X71167800Y-72525500D01*
X71379800Y-72242700D02*
X71167800Y-72454700D01*
X98125900Y-72242700D02*
X71379800Y-72242700D01*
X98863500Y-71505100D02*
X98125900Y-72242700D01*
X106306000Y-71505100D02*
X98863500Y-71505100D01*
X106372000Y-71439500D02*
X106306000Y-71505100D01*
X106870000Y-71439500D02*
X106372000Y-71439500D01*
X107011000Y-71580700D02*
X106870000Y-71439500D01*
X140404000Y-71580700D02*
X107011000Y-71580700D01*
X140479000Y-71505100D02*
X140404000Y-71580700D01*
X171091000Y-71505100D02*
X140479000Y-71505100D01*
X171357000Y-71239800D02*
X171091000Y-71505100D01*
X178738000Y-71239800D02*
X171357000Y-71239800D01*
X179003000Y-71505100D02*
X178738000Y-71239800D01*
X182401000Y-71505100D02*
X179003000Y-71505100D01*
X182601000Y-71705100D02*
X182401000Y-71505100D01*
X182601000Y-71781500D02*
X182601000Y-71705100D01*
X182724000Y-71905300D02*
X182601000Y-71781500D01*
X183041000Y-71905300D02*
X182724000Y-71905300D01*
X183199000Y-71746600D02*
X183041000Y-71905300D01*
X183282000Y-71746600D02*
X183199000Y-71746600D01*
X183662000Y-72126400D02*
X183282000Y-71746600D01*
X185247000Y-72126400D02*
X183662000Y-72126400D01*
%TO.N,Net-(U3-IN2)*%
X67905000Y-65256000D02*
X67905000Y-66965100D01*
%TO.N,Net-(U3-IN3)*%
X66849600Y-66966300D02*
X67068100Y-66966300D01*
X66635000Y-66751700D02*
X66849600Y-66966300D01*
X66635000Y-65256000D02*
X66635000Y-66751700D01*
%TO.N,Net-(U3-IN13)*%
X80151500Y-91026200D02*
X203176000Y-91026200D01*
X65365000Y-76239700D02*
X80151500Y-91026200D01*
X65365000Y-74744000D02*
X65365000Y-76239700D01*
%TO.N,Net-(U3-IN4)*%
X88261800Y-67981900D02*
X88462700Y-67781000D01*
X72812100Y-67981900D02*
X88261800Y-67981900D01*
X72410400Y-67580200D02*
X72812100Y-67981900D01*
X66193500Y-67580200D02*
X72410400Y-67580200D01*
X65365000Y-66751700D02*
X66193500Y-67580200D01*
X65365000Y-65256000D02*
X65365000Y-66751700D01*
%TO.N,Net-(U3-IN14)*%
X64095000Y-73248300D02*
X64095000Y-74744000D01*
X66239900Y-71103400D02*
X64095000Y-73248300D01*
X97929300Y-71103400D02*
X66239900Y-71103400D01*
X98331000Y-70701700D02*
X97929300Y-71103400D01*
X105973000Y-70701700D02*
X98331000Y-70701700D01*
X106039000Y-70636100D02*
X105973000Y-70701700D01*
X107202000Y-70636100D02*
X106039000Y-70636100D01*
X107268000Y-70701700D02*
X107202000Y-70636100D01*
X121408000Y-70701700D02*
X107268000Y-70701700D01*
X121484000Y-70777300D02*
X121408000Y-70701700D01*
X140071000Y-70777300D02*
X121484000Y-70777300D01*
X140147000Y-70701700D02*
X140071000Y-70777300D01*
X170759000Y-70701700D02*
X140147000Y-70701700D01*
X171024000Y-70436400D02*
X170759000Y-70701700D01*
X179071000Y-70436400D02*
X171024000Y-70436400D01*
X179336000Y-70701700D02*
X179071000Y-70436400D01*
X185495000Y-70701700D02*
X179336000Y-70701700D01*
X186035000Y-71241300D02*
X185495000Y-70701700D01*
X256259000Y-71241300D02*
X186035000Y-71241300D01*
%TO.N,Net-(U3-IN7)*%
X61555000Y-66988400D02*
X61555000Y-65256000D01*
X121238000Y-116500000D02*
X121237800Y-116499800D01*
X113038000Y-108300000D02*
X61555000Y-108300000D01*
X121237800Y-116499800D02*
X113038000Y-108300000D01*
X121237800Y-116499800D02*
X121237800Y-116500000D01*
%TO.N,Net-(U3-IN10)*%
X82245900Y-89310600D02*
X235951000Y-89310600D01*
X69175000Y-76239700D02*
X82245900Y-89310600D01*
X69175000Y-74744000D02*
X69175000Y-76239700D01*
%TO.N,Net-(U3-IN16)*%
X61555000Y-73248300D02*
X61555000Y-74744000D01*
X64513000Y-70290300D02*
X61555000Y-73248300D01*
X97606400Y-70290300D02*
X64513000Y-70290300D01*
X97998400Y-69898300D02*
X97606400Y-70290300D01*
X105641000Y-69898300D02*
X97998400Y-69898300D01*
X105706000Y-69832700D02*
X105641000Y-69898300D01*
X107535000Y-69832700D02*
X105706000Y-69832700D01*
X107601000Y-69898300D02*
X107535000Y-69832700D01*
X121741000Y-69898300D02*
X107601000Y-69898300D01*
X121816000Y-69973900D02*
X121741000Y-69898300D01*
X139739000Y-69973900D02*
X121816000Y-69973900D01*
X139814000Y-69898300D02*
X139739000Y-69973900D01*
X170426000Y-69898300D02*
X139814000Y-69898300D01*
X170691000Y-69633000D02*
X170426000Y-69898300D01*
X179403000Y-69633000D02*
X170691000Y-69633000D01*
X179669000Y-69898300D02*
X179403000Y-69633000D01*
X273860000Y-69898300D02*
X179669000Y-69898300D01*
%TO.N,Net-(U3-IN1)*%
X69175000Y-63760300D02*
X69175000Y-65256000D01*
X68511000Y-63096300D02*
X69175000Y-63760300D01*
X59564400Y-63096300D02*
X68511000Y-63096300D01*
X58965100Y-63695600D02*
X59564400Y-63096300D01*
X39300000Y-63695600D02*
X58965100Y-63695600D01*
%TO.N,Net-(U3-IN6)*%
X137625000Y-96961200D02*
X67295800Y-96961200D01*
X62825000Y-65256000D02*
X62825000Y-66958900D01*
%TO.N,Net-(U3-IN8)*%
X152284000Y-107698000D02*
X59973000Y-107698000D01*
X60285000Y-66751700D02*
X60285000Y-65256000D01*
X60200500Y-66751700D02*
X60285000Y-66751700D01*
X59973000Y-66979200D02*
X60200500Y-66751700D01*
%TO.N,Net-(U3-IN9)*%
X160268000Y-72785900D02*
X160392000Y-72910300D01*
X137239000Y-72785900D02*
X160268000Y-72785900D01*
X136839000Y-73185900D02*
X137239000Y-72785900D01*
X136341000Y-73185900D02*
X136839000Y-73185900D01*
X135600000Y-72444900D02*
X136341000Y-73185900D01*
X107068000Y-72444900D02*
X135600000Y-72444900D01*
X106870000Y-72643200D02*
X107068000Y-72444900D01*
X98293900Y-72643200D02*
X106870000Y-72643200D01*
X98292700Y-72644400D02*
X98293900Y-72643200D01*
X71616900Y-72644400D02*
X98292700Y-72644400D01*
X70895300Y-73366000D02*
X71616900Y-72644400D01*
X70562800Y-73366000D02*
X70895300Y-73366000D01*
X70445100Y-73248300D02*
X70562800Y-73366000D01*
X70445000Y-73248300D02*
X70445100Y-73248300D01*
X70445000Y-74744000D02*
X70445000Y-73248300D01*
%TO.N,Net-(J1-Pin_15)*%
X174570000Y-65256000D02*
X174570000Y-68427900D01*
X56954600Y-70253700D02*
X18831000Y-70253700D01*
X59015000Y-68193300D02*
X56954600Y-70253700D01*
X59015000Y-65256000D02*
X59015000Y-68193300D01*
X179902000Y-68427900D02*
X174570000Y-68427900D01*
X180025000Y-68550600D02*
X179902000Y-68427900D01*
X183348000Y-68550600D02*
X180025000Y-68550600D01*
X183444000Y-68646200D02*
X183348000Y-68550600D01*
X195290000Y-68646200D02*
X183444000Y-68646200D01*
X196127000Y-67809600D02*
X195290000Y-68646200D01*
X196627000Y-67809600D02*
X196127000Y-67809600D01*
X196768000Y-67951100D02*
X196627000Y-67809600D01*
X216334000Y-67951100D02*
X196768000Y-67951100D01*
X217534000Y-66751700D02*
X216334000Y-67951100D01*
X230515000Y-66751700D02*
X217534000Y-66751700D01*
X230515000Y-65256000D02*
X230515000Y-66751700D01*
X113300000Y-65256000D02*
X113300000Y-68294000D01*
X59506900Y-68685200D02*
X59015000Y-68193300D01*
X68862600Y-68685200D02*
X59506900Y-68685200D01*
X69032000Y-68854600D02*
X68862600Y-68685200D01*
X97338100Y-68854600D02*
X69032000Y-68854600D01*
X97898700Y-68294000D02*
X97338100Y-68854600D01*
X113300000Y-68294000D02*
X97898700Y-68294000D01*
X113573000Y-68567100D02*
X113300000Y-68294000D01*
X122114000Y-68567100D02*
X113573000Y-68567100D01*
X122315000Y-68768800D02*
X122114000Y-68567100D01*
X139240000Y-68768800D02*
X122315000Y-68768800D01*
X139441000Y-68567100D02*
X139240000Y-68768800D01*
X170053000Y-68567100D02*
X139441000Y-68567100D01*
X170192000Y-68427900D02*
X170053000Y-68567100D01*
X174570000Y-68427900D02*
X170192000Y-68427900D01*
%TO.N,Net-(J1-Pin_7)*%
X19831600Y-107045000D02*
X197224000Y-107045000D01*
X18831000Y-108046000D02*
X19831600Y-107045000D01*
X228620000Y-64630500D02*
X197224000Y-64630500D01*
X229245000Y-65256000D02*
X228620000Y-64630500D01*
%TO.N,Net-(J1-Pin_8)*%
X18831000Y-105506000D02*
X170882000Y-105506000D01*
X173300000Y-66751700D02*
X170882000Y-66751700D01*
X173300000Y-65256000D02*
X173300000Y-66751700D01*
%TO.N,Net-(J1-Pin_9)*%
X111304000Y-64530300D02*
X79693500Y-64530300D01*
X112030000Y-65256000D02*
X111304000Y-64530300D01*
X18831000Y-102966000D02*
X79693500Y-102966000D01*
%TO.N,Net-(J1-Pin_10)*%
X19211000Y-100426000D02*
X19331000Y-100546000D01*
X18831000Y-100426000D02*
X19211000Y-100426000D01*
X57208900Y-67287800D02*
X20488400Y-67287800D01*
X57745000Y-66751700D02*
X57208900Y-67287800D01*
X57745000Y-65256000D02*
X57745000Y-66751700D01*
%TO.N,Net-(J1-Pin_6)*%
X70881100Y-61880200D02*
X71715000Y-62714100D01*
X22294000Y-61880200D02*
X70881100Y-61880200D01*
X71715000Y-62714100D02*
X71715000Y-65256000D01*
X126000000Y-63760300D02*
X126000000Y-65256000D01*
X125040000Y-62800100D02*
X126000000Y-63760300D01*
X110062000Y-62800100D02*
X125040000Y-62800100D01*
X109862000Y-63000100D02*
X110062000Y-62800100D01*
X109363000Y-63000100D02*
X109862000Y-63000100D01*
X109077000Y-62714100D02*
X109363000Y-63000100D01*
X71715000Y-62714100D02*
X109077000Y-62714100D01*
X243215000Y-63760300D02*
X243215000Y-65256000D01*
X242412000Y-62956900D02*
X243215000Y-63760300D01*
X195720000Y-62956900D02*
X242412000Y-62956900D01*
X191925000Y-66751700D02*
X195720000Y-62956900D01*
X187270000Y-66751700D02*
X191925000Y-66751700D01*
X187270000Y-65256000D02*
X187270000Y-66751700D01*
X126000000Y-66751700D02*
X126000000Y-65256000D01*
X126410000Y-67162000D02*
X126000000Y-66751700D01*
X138373000Y-67162000D02*
X126410000Y-67162000D01*
X138774000Y-66760300D02*
X138373000Y-67162000D01*
X139621000Y-66760300D02*
X138774000Y-66760300D01*
X143826000Y-62555200D02*
X139621000Y-66760300D01*
X186065000Y-62555200D02*
X143826000Y-62555200D01*
X187270000Y-63760300D02*
X186065000Y-62555200D01*
X187270000Y-65256000D02*
X187270000Y-63760300D01*
%TO.N,Net-(J1-Pin_5)*%
X20853200Y-111104000D02*
X60663900Y-111104000D01*
X18831000Y-113126000D02*
X20853200Y-111104000D01*
X72985000Y-65256000D02*
X72985000Y-66751700D01*
X188540000Y-63760300D02*
X188540000Y-65256000D01*
X186933000Y-62153500D02*
X188540000Y-63760300D01*
X142813000Y-62153500D02*
X186933000Y-62153500D01*
X138215000Y-66751700D02*
X142813000Y-62153500D01*
X127270000Y-66751700D02*
X138215000Y-66751700D01*
X127270000Y-65256000D02*
X127270000Y-66751700D01*
X125908000Y-62398400D02*
X109612000Y-62398400D01*
X127270000Y-63760300D02*
X125908000Y-62398400D01*
X127270000Y-65256000D02*
X127270000Y-63760300D01*
X80230400Y-65216400D02*
X109612000Y-65216400D01*
X77916600Y-67530200D02*
X80230400Y-65216400D01*
X73549700Y-67530200D02*
X77916600Y-67530200D01*
X72985000Y-66965500D02*
X73549700Y-67530200D01*
X72985000Y-66751700D02*
X72985000Y-66965500D01*
X68931100Y-66751700D02*
X72985000Y-66751700D01*
X68571600Y-66392200D02*
X68931100Y-66751700D01*
X68571600Y-64176700D02*
X68571600Y-66392200D01*
X68094900Y-63700000D02*
X68571600Y-64176700D01*
X60833700Y-63700000D02*
X68094900Y-63700000D01*
%TO.N,Net-(J1-Pin_4)*%
X128540000Y-65256000D02*
X128540000Y-63760300D01*
X20977600Y-113519000D02*
X74451100Y-113519000D01*
X18831000Y-115666000D02*
X20977600Y-113519000D01*
X74494500Y-66751700D02*
X74660400Y-66917600D01*
X74255000Y-66751700D02*
X74494500Y-66751700D01*
X74255000Y-65256000D02*
X74255000Y-66751700D01*
X126576000Y-61796700D02*
X74660400Y-61796700D01*
X128540000Y-63760300D02*
X126576000Y-61796700D01*
X130548000Y-61751800D02*
X128540000Y-63760300D01*
X187802000Y-61751800D02*
X130548000Y-61751800D01*
X189810000Y-63760300D02*
X187802000Y-61751800D01*
X189810000Y-65256000D02*
X189810000Y-63760300D01*
%TO.N,Net-(J1-Pin_3)*%
X128540000Y-74744000D02*
X128540000Y-73996100D01*
X189810000Y-74744000D02*
X189810000Y-73248300D01*
X74255000Y-73248300D02*
X74255000Y-74744000D01*
X106833000Y-73248300D02*
X74255000Y-73248300D01*
X107234000Y-72846600D02*
X106833000Y-73248300D01*
X128138000Y-72846600D02*
X107234000Y-72846600D01*
X128540000Y-73248300D02*
X128138000Y-72846600D01*
X128540000Y-73996100D02*
X128540000Y-73248300D01*
X73411700Y-77083000D02*
X70997800Y-77083000D01*
X74255000Y-76239700D02*
X73411700Y-77083000D01*
X74255000Y-74744000D02*
X74255000Y-76239700D01*
X190613000Y-72444900D02*
X189810000Y-73248300D01*
X244952000Y-72444900D02*
X190613000Y-72444900D01*
X245755000Y-73248300D02*
X244952000Y-72444900D01*
X245755000Y-74744000D02*
X245755000Y-73248300D01*
X22652300Y-114385000D02*
X70535800Y-114385000D01*
X18831000Y-118206000D02*
X22652300Y-114385000D01*
X170872000Y-73996100D02*
X128540000Y-73996100D01*
X172022000Y-72846600D02*
X170872000Y-73996100D01*
X178073000Y-72846600D02*
X172022000Y-72846600D01*
X178474000Y-73248300D02*
X178073000Y-72846600D01*
X178624000Y-73248300D02*
X178474000Y-73248300D01*
X179020000Y-73644000D02*
X178624000Y-73248300D01*
X179020000Y-76177600D02*
X179020000Y-73644000D01*
X179744000Y-76902000D02*
X179020000Y-76177600D01*
X185622000Y-76902000D02*
X179744000Y-76902000D01*
X186655000Y-75869700D02*
X185622000Y-76902000D01*
X186655000Y-73556700D02*
X186655000Y-75869700D01*
X186963000Y-73248300D02*
X186655000Y-73556700D01*
X189810000Y-73248300D02*
X186963000Y-73248300D01*
%TO.N,Net-(J1-Pin_1)*%
X241945000Y-66953300D02*
X241945000Y-65256000D01*
X173300000Y-76239700D02*
X173300000Y-74744000D01*
X172673000Y-76239700D02*
X173300000Y-76239700D01*
X171855000Y-75422300D02*
X172673000Y-76239700D01*
X229455000Y-76449900D02*
X231245000Y-76449900D01*
X229245000Y-76239700D02*
X229455000Y-76449900D01*
X229245000Y-74744000D02*
X229245000Y-76239700D01*
X124730000Y-66912000D02*
X124730000Y-65256000D01*
X124775000Y-66956800D02*
X124730000Y-66912000D01*
X36251700Y-114848000D02*
X34600000Y-116500000D01*
X49335900Y-114848000D02*
X36251700Y-114848000D01*
X50987600Y-116500000D02*
X49335900Y-114848000D01*
X58060700Y-76239700D02*
X58166700Y-76345700D01*
X57745000Y-76239700D02*
X58060700Y-76239700D01*
X57745000Y-74744000D02*
X57745000Y-76239700D01*
X113905000Y-76239700D02*
X117846000Y-80180400D01*
X112030000Y-76239700D02*
X113905000Y-76239700D01*
X112030000Y-74744000D02*
X112030000Y-76239700D01*
X69025900Y-133152000D02*
X67374200Y-131500000D01*
X82109600Y-133152000D02*
X69025900Y-133152000D01*
X83761300Y-131500000D02*
X82109600Y-133152000D01*
X172665000Y-62956900D02*
X172123000Y-63498400D01*
X185197000Y-62956900D02*
X172665000Y-62956900D01*
X186000000Y-63760300D02*
X185197000Y-62956900D01*
X186000000Y-65256000D02*
X186000000Y-63760300D01*
X262536000Y-164164000D02*
X264200000Y-162500000D01*
X249464000Y-164164000D02*
X262536000Y-164164000D01*
X247800000Y-162500000D02*
X249464000Y-164164000D01*
X52638800Y-133152000D02*
X50987100Y-131500000D01*
X65722500Y-133152000D02*
X52638800Y-133152000D01*
X67374200Y-131500000D02*
X65722500Y-133152000D01*
X31624000Y-119476000D02*
X34600000Y-116500000D01*
X18528100Y-119476000D02*
X31624000Y-119476000D01*
X17722400Y-120282000D02*
X18528100Y-119476000D01*
X17722400Y-121213000D02*
X17722400Y-120282000D01*
X18693300Y-122184000D02*
X17722400Y-121213000D01*
X18831000Y-122184000D02*
X18693300Y-122184000D01*
X18831000Y-123286000D02*
X18831000Y-122184000D01*
X278948000Y-160848000D02*
X280600000Y-162500000D01*
X265852000Y-160848000D02*
X278948000Y-160848000D01*
X264200000Y-162500000D02*
X265852000Y-160848000D01*
X69179600Y-62494900D02*
X58166700Y-62494900D01*
X70445000Y-63760300D02*
X69179600Y-62494900D01*
X70445000Y-65256000D02*
X70445000Y-63760300D01*
X167349000Y-133152000D02*
X166523000Y-132326000D01*
X180432000Y-133152000D02*
X167349000Y-133152000D01*
X182084000Y-131500000D02*
X180432000Y-133152000D01*
X166522900Y-132326000D02*
X165696900Y-131500000D01*
X166523000Y-132326000D02*
X166522900Y-132326000D01*
X247632000Y-147500000D02*
X246806500Y-148326000D01*
X247632400Y-147500100D02*
X247632400Y-147500000D01*
X246806500Y-148326000D02*
X247632400Y-147500100D01*
X264846500Y-132326500D02*
X264020000Y-131500000D01*
X264846100Y-132326500D02*
X264019600Y-131500000D01*
X264846500Y-132326500D02*
X264846100Y-132326500D01*
X231245300Y-147500000D02*
X231245200Y-147500100D01*
X232897000Y-149152000D02*
X231245200Y-147500100D01*
X245981000Y-149152000D02*
X232897000Y-149152000D01*
X246806500Y-148326000D02*
X245981000Y-149152000D01*
X231245200Y-147500100D02*
X231245000Y-147500000D01*
X280407000Y-131500000D02*
X279580000Y-132326500D01*
X265673000Y-133153000D02*
X264846500Y-132326500D01*
X278753000Y-133153000D02*
X265673000Y-133153000D01*
X279580000Y-132326500D02*
X278753000Y-133153000D01*
X279580200Y-132326500D02*
X280406700Y-131500000D01*
X279580000Y-132326500D02*
X279580200Y-132326500D01*
X134171900Y-132749200D02*
X134171900Y-132749700D01*
X132922700Y-131500000D02*
X134171900Y-132749200D01*
X183736000Y-133152000D02*
X182084000Y-131500000D01*
X196819000Y-133152000D02*
X183736000Y-133152000D01*
X197645000Y-132326000D02*
X196819000Y-133152000D01*
X197645100Y-132326000D02*
X198471100Y-131500000D01*
X197645000Y-132326000D02*
X197645100Y-132326000D01*
X150962000Y-133152000D02*
X150136000Y-132326000D01*
X164045000Y-133152000D02*
X150962000Y-133152000D01*
X165697000Y-131500000D02*
X164045000Y-133152000D01*
X166523000Y-132326000D02*
X165697000Y-131500000D01*
X134574000Y-133152000D02*
X134171900Y-132749700D01*
X147658000Y-133152000D02*
X134574000Y-133152000D01*
X149310000Y-131500000D02*
X147658000Y-133152000D01*
X150136000Y-132326000D02*
X149310000Y-131500000D01*
X150135800Y-132326000D02*
X149309800Y-131500000D01*
X150136000Y-132326000D02*
X150135800Y-132326000D01*
X85413000Y-133152000D02*
X83761300Y-131500000D01*
X98496700Y-133152000D02*
X85413000Y-133152000D01*
X100148000Y-131500000D02*
X98496700Y-133152000D01*
X101397800Y-132749800D02*
X100148000Y-131500000D01*
X101397800Y-132749400D02*
X101397800Y-132749800D01*
X100148400Y-131500000D02*
X101397800Y-132749400D01*
X101800000Y-133152000D02*
X101397800Y-132749800D01*
X114884000Y-133152000D02*
X101800000Y-133152000D01*
X116536000Y-131500000D02*
X114884000Y-133152000D01*
X117784900Y-132749700D02*
X116536000Y-131500000D01*
X117784900Y-132749300D02*
X117784900Y-132749700D01*
X116535600Y-131500000D02*
X117784900Y-132749300D01*
X118187000Y-133152000D02*
X117784900Y-132749700D01*
X131271000Y-133152000D02*
X118187000Y-133152000D01*
X132923000Y-131500000D02*
X131271000Y-133152000D01*
X134171900Y-132749700D02*
X132923000Y-131500000D01*
X198471000Y-131500000D02*
X197645000Y-132326000D01*
X200123000Y-133152000D02*
X198471000Y-131500000D01*
X213206000Y-133152000D02*
X200123000Y-133152000D01*
X214032000Y-132326000D02*
X213206000Y-133152000D01*
X214032200Y-132326000D02*
X214858200Y-131500000D01*
X214032000Y-132326000D02*
X214032200Y-132326000D01*
X231245000Y-131500000D02*
X230419500Y-132326000D01*
X214858000Y-131500000D02*
X214032000Y-132326000D01*
X216510000Y-133152000D02*
X214858000Y-131500000D01*
X229594000Y-133152000D02*
X216510000Y-133152000D01*
X230419500Y-132326000D02*
X229594000Y-133152000D01*
X231245300Y-131500200D02*
X231245300Y-131500000D01*
X230419500Y-132326000D02*
X231245300Y-131500200D01*
%TO.N,Net-(J1-Pin_2)*%
X207876000Y-118152000D02*
X191488000Y-118152000D01*
X191488000Y-118152000D02*
X191488000Y-116500000D01*
X236865000Y-74744000D02*
X236865000Y-73248300D01*
X224263000Y-118152000D02*
X207876000Y-118152000D01*
X240651000Y-118152000D02*
X224263000Y-118152000D01*
X288336000Y-164164000D02*
X290000000Y-162500000D01*
X275264000Y-164164000D02*
X288336000Y-164164000D01*
X273600000Y-162500000D02*
X275264000Y-164164000D01*
X137700000Y-162500000D02*
X142400000Y-162500000D01*
X136036000Y-164164000D02*
X137700000Y-162500000D01*
X127664000Y-164164000D02*
X136036000Y-164164000D01*
X126000000Y-162500000D02*
X127664000Y-164164000D01*
X240651000Y-118152000D02*
X240651000Y-116500000D01*
X157148000Y-164152000D02*
X158800000Y-162500000D01*
X144052000Y-164152000D02*
X157148000Y-164152000D01*
X142400000Y-162500000D02*
X144052000Y-164152000D01*
X58729600Y-118158000D02*
X60387600Y-116500000D01*
X45658000Y-118158000D02*
X58729600Y-118158000D01*
X44000000Y-116500000D02*
X45658000Y-118158000D01*
X94815000Y-118152000D02*
X109550000Y-118152000D01*
X93162700Y-116500000D02*
X94815000Y-118152000D01*
X91511000Y-118152000D02*
X93162700Y-116500000D01*
X78426800Y-118152000D02*
X91511000Y-118152000D01*
X76775100Y-116500000D02*
X78426800Y-118152000D01*
X226008000Y-76239700D02*
X187270000Y-76239700D01*
X229401000Y-72846600D02*
X226008000Y-76239700D01*
X236463000Y-72846600D02*
X229401000Y-72846600D01*
X236865000Y-73248300D02*
X236463000Y-72846600D01*
X187270000Y-74744000D02*
X187270000Y-76239700D01*
X39754000Y-120746000D02*
X44000000Y-116500000D01*
X18831000Y-120746000D02*
X39754000Y-120746000D01*
X257038000Y-118152000D02*
X240651000Y-118152000D01*
X243215000Y-73248300D02*
X236865000Y-73248300D01*
X243215000Y-74744000D02*
X243215000Y-73248300D01*
X207876000Y-118152000D02*
X207876000Y-116500000D01*
X126000000Y-76239700D02*
X126000000Y-74744000D01*
X126607000Y-76846600D02*
X126000000Y-76239700D01*
X175102000Y-76846600D02*
X126607000Y-76846600D01*
X75122500Y-129848000D02*
X76774200Y-131500000D01*
X62038800Y-129848000D02*
X75122500Y-129848000D01*
X60387100Y-131500000D02*
X62038800Y-129848000D01*
X186200000Y-77310100D02*
X187270000Y-76239700D01*
X175566000Y-77310100D02*
X186200000Y-77310100D01*
X175102000Y-76846600D02*
X175566000Y-77310100D01*
X72527000Y-76239700D02*
X72740200Y-76452900D01*
X71715000Y-76239700D02*
X72527000Y-76239700D01*
X71715000Y-74744000D02*
X71715000Y-76239700D01*
X109550000Y-116500000D02*
X109550000Y-117326000D01*
X109550000Y-117326000D02*
X109550000Y-118152000D01*
X109550200Y-117325800D02*
X109550200Y-116500000D01*
X109550000Y-117326000D02*
X109550200Y-117325800D01*
X224263000Y-118152000D02*
X224263000Y-117326000D01*
X224263000Y-117326000D02*
X224263000Y-116500000D01*
X224263100Y-117325900D02*
X224263100Y-116500000D01*
X224263000Y-117326000D02*
X224263100Y-117325900D01*
X124286000Y-118152000D02*
X125937800Y-116500200D01*
X109550000Y-118152000D02*
X124286000Y-118152000D01*
X125937800Y-116500200D02*
X125938000Y-116500000D01*
X125937800Y-116500200D02*
X125937800Y-116500000D01*
X240650700Y-116500000D02*
X240651000Y-116500000D01*
X289813000Y-116500000D02*
X288564100Y-117749700D01*
X288564100Y-117749200D02*
X288564100Y-117749700D01*
X289813300Y-116500000D02*
X288564100Y-117749200D01*
X273425800Y-116500000D02*
X273425900Y-116500100D01*
X273426000Y-116500000D02*
X273425900Y-116500100D01*
X275078000Y-118152000D02*
X273426000Y-116500000D01*
X288162000Y-118152000D02*
X275078000Y-118152000D01*
X288564100Y-117749700D02*
X288162000Y-118152000D01*
X271774000Y-118152000D02*
X257038000Y-118152000D01*
X273425900Y-116500100D02*
X271774000Y-118152000D01*
X207875600Y-116500000D02*
X207876000Y-116500000D01*
X158712900Y-116500000D02*
X158713000Y-116500000D01*
X257038000Y-118152000D02*
X257038000Y-117326000D01*
X257038000Y-117326000D02*
X257038000Y-116500000D01*
X257038200Y-117325800D02*
X257038200Y-116500000D01*
X257038000Y-117326000D02*
X257038200Y-117325800D01*
X173449000Y-118152000D02*
X174274500Y-117326000D01*
X160365000Y-118152000D02*
X173449000Y-118152000D01*
X158713000Y-116500000D02*
X160365000Y-118152000D01*
X176753000Y-118152000D02*
X191488000Y-118152000D01*
X175100000Y-116500000D02*
X176753000Y-118152000D01*
X174274500Y-117326000D02*
X175100000Y-116500000D01*
X175100400Y-116500100D02*
X175100400Y-116500000D01*
X174274500Y-117326000D02*
X175100400Y-116500100D01*
%TD*%
M02*
