%TF.GenerationSoftware,KiCad,Pcbnew,9.0.0*%
%TF.CreationDate,2025-03-18T21:00:28+01:00*%
%TF.ProjectId,to_ROMRAM_using_SWRegisters,746f5f52-4f4d-4524-914d-5f7573696e67,rev?*%
%TF.SameCoordinates,Original*%
%TF.FileFunction,Copper,L2,Bot*%
%TF.FilePolarity,Positive*%
%FSLAX46Y46*%
G04 Gerber Fmt 4.6, Leading zero omitted, Abs format (unit mm)*
G04 Created by KiCad (PCBNEW 9.0.0) date 2025-03-18 21:00:28*
%MOMM*%
%LPD*%
G01*
G04 APERTURE LIST*
%TA.AperFunction,ComponentPad*%
%ADD10C,2.700000*%
%TD*%
%TA.AperFunction,ComponentPad*%
%ADD11R,1.600000X1.600000*%
%TD*%
%TA.AperFunction,ComponentPad*%
%ADD12C,1.600000*%
%TD*%
%TA.AperFunction,ViaPad*%
%ADD13C,0.600000*%
%TD*%
%TA.AperFunction,Conductor*%
%ADD14C,0.200000*%
%TD*%
G04 APERTURE END LIST*
D10*
%TO.P,v_dg0_a40,1,A*%
%TO.N,Net-(J1-Pin_1)*%
X165696900Y-147500000D03*
%TO.P,v_dg0_a40,2,B*%
%TO.N,Net-(U5-IN2)*%
X170396900Y-147500000D03*
%TO.P,v_dg0_a40,3,C*%
%TO.N,Net-(J1-Pin_2)*%
X175096900Y-147500000D03*
%TD*%
%TO.P,v_dg0_a29,1,A*%
%TO.N,Net-(J1-Pin_1)*%
X247632400Y-131500000D03*
%TO.P,v_dg0_a29,2,B*%
%TO.N,Net-(U4-IN12)*%
X252332400Y-131500000D03*
%TO.P,v_dg0_a29,3,C*%
%TO.N,Net-(J1-Pin_2)*%
X257032400Y-131500000D03*
%TD*%
%TO.P,v_dg0_a11,1,A*%
%TO.N,Net-(J1-Pin_1)*%
X214863100Y-116500000D03*
%TO.P,v_dg0_a11,2,B*%
%TO.N,Net-(U3-IN15)*%
X219563100Y-116500000D03*
%TO.P,v_dg0_a11,3,C*%
%TO.N,Net-(J1-Pin_2)*%
X224263100Y-116500000D03*
%TD*%
%TO.P,v_dg0_a7,1,A*%
%TO.N,Net-(J1-Pin_1)*%
X149312900Y-116500000D03*
%TO.P,v_dg0_a7,2,B*%
%TO.N,Net-(U3-IN8)*%
X154012900Y-116500000D03*
%TO.P,v_dg0_a7,3,C*%
%TO.N,Net-(J1-Pin_2)*%
X158712900Y-116500000D03*
%TD*%
%TO.P,v_dg0_a21,1,A*%
%TO.N,Net-(J1-Pin_1)*%
X116535600Y-131500000D03*
%TO.P,v_dg0_a21,2,B*%
%TO.N,Net-(U4-IN11)*%
X121235600Y-131500000D03*
%TO.P,v_dg0_a21,3,C*%
%TO.N,Net-(J1-Pin_2)*%
X125935600Y-131500000D03*
%TD*%
%TO.P,v_dg0_a8,1,A*%
%TO.N,Net-(J1-Pin_1)*%
X165700400Y-116500000D03*
%TO.P,v_dg0_a8,2,B*%
%TO.N,Net-(U3-IN9)*%
X170400400Y-116500000D03*
%TO.P,v_dg0_a8,3,C*%
%TO.N,Net-(J1-Pin_2)*%
X175100400Y-116500000D03*
%TD*%
%TO.P,v_dg0_a10,1,A*%
%TO.N,Net-(J1-Pin_1)*%
X198475600Y-116500000D03*
%TO.P,v_dg0_a10,2,B*%
%TO.N,Net-(U3-IN13)*%
X203175600Y-116500000D03*
%TO.P,v_dg0_a10,3,C*%
%TO.N,Net-(J1-Pin_2)*%
X207875600Y-116500000D03*
%TD*%
%TO.P,v_dg0_a48,1,A*%
%TO.N,Net-(J1-Pin_1)*%
X34600000Y-162500000D03*
%TO.P,v_dg0_a48,2,B*%
%TO.N,Net-(U6-IN1)*%
X39300000Y-162500000D03*
%TO.P,v_dg0_a48,3,C*%
%TO.N,Net-(J1-Pin_2)*%
X44000000Y-162500000D03*
%TD*%
%TO.P,v_dg0_a61,1,A*%
%TO.N,Net-(J1-Pin_1)*%
X247800000Y-162500000D03*
%TO.P,v_dg0_a61,2,B*%
%TO.N,Net-(U6-IN12)*%
X252500000Y-162500000D03*
%TO.P,v_dg0_a61,3,C*%
%TO.N,Net-(J1-Pin_2)*%
X257200000Y-162500000D03*
%TD*%
%TO.P,v_dg0_a39,1,A*%
%TO.N,Net-(J1-Pin_1)*%
X149309800Y-147500000D03*
%TO.P,v_dg0_a39,2,B*%
%TO.N,Net-(U5-IN15)*%
X154009800Y-147500000D03*
%TO.P,v_dg0_a39,3,C*%
%TO.N,Net-(J1-Pin_2)*%
X158709800Y-147500000D03*
%TD*%
%TO.P,v_dg0_a14,1,A*%
%TO.N,Net-(J1-Pin_1)*%
X264025800Y-116500000D03*
%TO.P,v_dg0_a14,2,B*%
%TO.N,Net-(U3-IN14)*%
X268725800Y-116500000D03*
%TO.P,v_dg0_a14,3,C*%
%TO.N,Net-(J1-Pin_2)*%
X273425800Y-116500000D03*
%TD*%
%TO.P,v_dg0_a20,1,A*%
%TO.N,Net-(J1-Pin_1)*%
X100148400Y-131500000D03*
%TO.P,v_dg0_a20,2,B*%
%TO.N,Net-(U4-IN9)*%
X104848400Y-131500000D03*
%TO.P,v_dg0_a20,3,C*%
%TO.N,Net-(J1-Pin_2)*%
X109548400Y-131500000D03*
%TD*%
%TO.P,v_dg0_a46,1,A*%
%TO.N,Net-(J1-Pin_1)*%
X264019600Y-147500000D03*
%TO.P,v_dg0_a46,2,B*%
%TO.N,Net-(U5-IN14)*%
X268719600Y-147500000D03*
%TO.P,v_dg0_a46,3,C*%
%TO.N,Net-(J1-Pin_2)*%
X273419600Y-147500000D03*
%TD*%
%TO.P,v_dg0_a42,1,A*%
%TO.N,Net-(J1-Pin_1)*%
X198471100Y-147500000D03*
%TO.P,v_dg0_a42,2,B*%
%TO.N,Net-(U5-IN6)*%
X203171100Y-147500000D03*
%TO.P,v_dg0_a42,3,C*%
%TO.N,Net-(J1-Pin_2)*%
X207871100Y-147500000D03*
%TD*%
%TO.P,v_dg0_a27,1,A*%
%TO.N,Net-(J1-Pin_1)*%
X214858200Y-131500000D03*
%TO.P,v_dg0_a27,2,B*%
%TO.N,Net-(U4-IN8)*%
X219558200Y-131500000D03*
%TO.P,v_dg0_a27,3,C*%
%TO.N,Net-(J1-Pin_2)*%
X224258200Y-131500000D03*
%TD*%
%TO.P,v_dg0_a26,1,A*%
%TO.N,Net-(J1-Pin_1)*%
X198471100Y-131500000D03*
%TO.P,v_dg0_a26,2,B*%
%TO.N,Net-(U4-IN6)*%
X203171100Y-131500000D03*
%TO.P,v_dg0_a26,3,C*%
%TO.N,Net-(J1-Pin_2)*%
X207871100Y-131500000D03*
%TD*%
%TO.P,v_dg0_a41,1,A*%
%TO.N,Net-(J1-Pin_1)*%
X182084000Y-147500000D03*
%TO.P,v_dg0_a41,2,B*%
%TO.N,Net-(U5-IN4)*%
X186784000Y-147500000D03*
%TO.P,v_dg0_a41,3,C*%
%TO.N,Net-(J1-Pin_2)*%
X191484000Y-147500000D03*
%TD*%
%TO.P,v_dg0_a13,1,A*%
%TO.N,Net-(J1-Pin_1)*%
X247638200Y-116500000D03*
%TO.P,v_dg0_a13,2,B*%
%TO.N,Net-(U3-IN12)*%
X252338200Y-116500000D03*
%TO.P,v_dg0_a13,3,C*%
%TO.N,Net-(J1-Pin_2)*%
X257038200Y-116500000D03*
%TD*%
%TO.P,v_dg0_a25,1,A*%
%TO.N,Net-(J1-Pin_1)*%
X182084000Y-131500000D03*
%TO.P,v_dg0_a25,2,B*%
%TO.N,Net-(U4-IN4)*%
X186784000Y-131500000D03*
%TO.P,v_dg0_a25,3,C*%
%TO.N,Net-(J1-Pin_2)*%
X191484000Y-131500000D03*
%TD*%
%TO.P,v_dg0_a36,1,A*%
%TO.N,Net-(J1-Pin_1)*%
X100148400Y-147500000D03*
%TO.P,v_dg0_a36,2,B*%
%TO.N,Net-(U5-IN9)*%
X104848400Y-147500000D03*
%TO.P,v_dg0_a36,3,C*%
%TO.N,Net-(J1-Pin_2)*%
X109548400Y-147500000D03*
%TD*%
%TO.P,v_dg0_a28,1,A*%
%TO.N,Net-(J1-Pin_1)*%
X231245300Y-131500000D03*
%TO.P,v_dg0_a28,2,B*%
%TO.N,Net-(U4-IN10)*%
X235945300Y-131500000D03*
%TO.P,v_dg0_a28,3,C*%
%TO.N,Net-(J1-Pin_2)*%
X240645300Y-131500000D03*
%TD*%
%TO.P,v_dg0_a60,1,A*%
%TO.N,Net-(J1-Pin_1)*%
X231400000Y-162500000D03*
%TO.P,v_dg0_a60,2,B*%
%TO.N,Net-(U6-IN10)*%
X236100000Y-162500000D03*
%TO.P,v_dg0_a60,3,C*%
%TO.N,Net-(J1-Pin_2)*%
X240800000Y-162500000D03*
%TD*%
%TO.P,v_dg0_a24,1,A*%
%TO.N,Net-(J1-Pin_1)*%
X165696900Y-131500000D03*
%TO.P,v_dg0_a24,2,B*%
%TO.N,Net-(U4-IN2)*%
X170396900Y-131500000D03*
%TO.P,v_dg0_a24,3,C*%
%TO.N,Net-(J1-Pin_2)*%
X175096900Y-131500000D03*
%TD*%
%TO.P,v_dg0_a31,1,A*%
%TO.N,Net-(J1-Pin_1)*%
X280406700Y-131500000D03*
%TO.P,v_dg0_a31,2,B*%
%TO.N,Net-(U4-IN16)*%
X285106700Y-131500000D03*
%TO.P,v_dg0_a31,3,C*%
%TO.N,Net-(J1-Pin_2)*%
X289806700Y-131500000D03*
%TD*%
%TO.P,v_dg0_a58,1,A*%
%TO.N,Net-(J1-Pin_1)*%
X198600000Y-162500000D03*
%TO.P,v_dg0_a58,2,B*%
%TO.N,Net-(U6-IN6)*%
X203300000Y-162500000D03*
%TO.P,v_dg0_a58,3,C*%
%TO.N,Net-(J1-Pin_2)*%
X208000000Y-162500000D03*
%TD*%
D11*
%TO.P,J1,1,Pin_1*%
%TO.N,Net-(J1-Pin_1)*%
X18831000Y-123286000D03*
D12*
%TO.P,J1,2,Pin_2*%
%TO.N,Net-(J1-Pin_2)*%
X18831000Y-120746000D03*
%TO.P,J1,3,Pin_3*%
%TO.N,Net-(J1-Pin_3)*%
X18831000Y-118206000D03*
%TO.P,J1,4,Pin_4*%
%TO.N,Net-(J1-Pin_4)*%
X18831000Y-115666000D03*
%TO.P,J1,5,Pin_5*%
%TO.N,Net-(J1-Pin_5)*%
X18831000Y-113126000D03*
%TO.P,J1,6,Pin_6*%
%TO.N,Net-(J1-Pin_6)*%
X18831000Y-110586000D03*
%TO.P,J1,7,Pin_7*%
%TO.N,Net-(J1-Pin_7)*%
X18831000Y-108046000D03*
%TO.P,J1,8,Pin_8*%
%TO.N,Net-(J1-Pin_8)*%
X18831000Y-105506000D03*
%TO.P,J1,9,Pin_9*%
%TO.N,Net-(J1-Pin_9)*%
X18831000Y-102966000D03*
%TO.P,J1,10,Pin_10*%
%TO.N,Net-(J1-Pin_10)*%
X18831000Y-100426000D03*
%TO.P,J1,11,Pin_11*%
%TO.N,unconnected-(J1-Pin_11-Pad11)*%
X18831000Y-97886000D03*
%TO.P,J1,12,Pin_12*%
%TO.N,unconnected-(J1-Pin_12-Pad12)*%
X18831000Y-95346000D03*
%TO.P,J1,13,Pin_13*%
%TO.N,unconnected-(J1-Pin_13-Pad13)*%
X18831000Y-92806000D03*
%TO.P,J1,14,Pin_14*%
%TO.N,unconnected-(J1-Pin_14-Pad14)*%
X18831000Y-90266000D03*
%TO.P,J1,15,Pin_15*%
%TO.N,Net-(J1-Pin_15)*%
X18831000Y-87726000D03*
%TD*%
D10*
%TO.P,v_dg0_a62,1,A*%
%TO.N,Net-(J1-Pin_1)*%
X264200000Y-162500000D03*
%TO.P,v_dg0_a62,2,B*%
%TO.N,Net-(U6-IN14)*%
X268900000Y-162500000D03*
%TO.P,v_dg0_a62,3,C*%
%TO.N,Net-(J1-Pin_2)*%
X273600000Y-162500000D03*
%TD*%
%TO.P,v_dg0_a22,1,A*%
%TO.N,Net-(J1-Pin_1)*%
X132922700Y-131500000D03*
%TO.P,v_dg0_a22,2,B*%
%TO.N,Net-(U4-IN13)*%
X137622700Y-131500000D03*
%TO.P,v_dg0_a22,3,C*%
%TO.N,Net-(J1-Pin_2)*%
X142322700Y-131500000D03*
%TD*%
%TO.P,v_dg0_a34,1,A*%
%TO.N,Net-(J1-Pin_1)*%
X67374200Y-147500000D03*
%TO.P,v_dg0_a34,2,B*%
%TO.N,Net-(U5-IN5)*%
X72074200Y-147500000D03*
%TO.P,v_dg0_a34,3,C*%
%TO.N,Net-(J1-Pin_2)*%
X76774200Y-147500000D03*
%TD*%
%TO.P,v_dg0_a57,1,A*%
%TO.N,Net-(J1-Pin_1)*%
X182200000Y-162500000D03*
%TO.P,v_dg0_a57,2,B*%
%TO.N,Net-(U6-IN4)*%
X186900000Y-162500000D03*
%TO.P,v_dg0_a57,3,C*%
%TO.N,Net-(J1-Pin_2)*%
X191600000Y-162500000D03*
%TD*%
%TO.P,v_dg0_a16,1,A*%
%TO.N,Net-(J1-Pin_1)*%
X34600000Y-131500000D03*
%TO.P,v_dg0_a16,2,B*%
%TO.N,Net-(U4-IN1)*%
X39300000Y-131500000D03*
%TO.P,v_dg0_a16,3,C*%
%TO.N,Net-(J1-Pin_2)*%
X44000000Y-131500000D03*
%TD*%
%TO.P,v_dg0_a50,1,A*%
%TO.N,Net-(J1-Pin_1)*%
X67400000Y-162500000D03*
%TO.P,v_dg0_a50,2,B*%
%TO.N,Net-(U6-IN5)*%
X72100000Y-162500000D03*
%TO.P,v_dg0_a50,3,C*%
%TO.N,Net-(J1-Pin_2)*%
X76800000Y-162500000D03*
%TD*%
%TO.P,v_dg0_a15,1,A*%
%TO.N,Net-(J1-Pin_1)*%
X280413300Y-116500000D03*
%TO.P,v_dg0_a15,2,B*%
%TO.N,Net-(U3-IN16)*%
X285113300Y-116500000D03*
%TO.P,v_dg0_a15,3,C*%
%TO.N,Net-(J1-Pin_2)*%
X289813300Y-116500000D03*
%TD*%
%TO.P,v_dg0_a19,1,A*%
%TO.N,Net-(J1-Pin_1)*%
X83761300Y-131500000D03*
%TO.P,v_dg0_a19,2,B*%
%TO.N,Net-(U4-IN7)*%
X88461300Y-131500000D03*
%TO.P,v_dg0_a19,3,C*%
%TO.N,Net-(J1-Pin_2)*%
X93161300Y-131500000D03*
%TD*%
%TO.P,v_dg0_a33,1,A*%
%TO.N,Net-(J1-Pin_1)*%
X50987100Y-147500000D03*
%TO.P,v_dg0_a33,2,B*%
%TO.N,Net-(U5-IN3)*%
X55687100Y-147500000D03*
%TO.P,v_dg0_a33,3,C*%
%TO.N,Net-(J1-Pin_2)*%
X60387100Y-147500000D03*
%TD*%
%TO.P,v_dg0_a55,1,A*%
%TO.N,Net-(J1-Pin_1)*%
X149400000Y-162500000D03*
%TO.P,v_dg0_a55,2,B*%
%TO.N,Net-(U6-IN15)*%
X154100000Y-162500000D03*
%TO.P,v_dg0_a55,3,C*%
%TO.N,Net-(J1-Pin_2)*%
X158800000Y-162500000D03*
%TD*%
%TO.P,v_dg0_a53,1,A*%
%TO.N,Net-(J1-Pin_1)*%
X116600000Y-162500000D03*
%TO.P,v_dg0_a53,2,B*%
%TO.N,Net-(U6-IN11)*%
X121300000Y-162500000D03*
%TO.P,v_dg0_a53,3,C*%
%TO.N,Net-(J1-Pin_2)*%
X126000000Y-162500000D03*
%TD*%
%TO.P,v_dg0_a1,1,A*%
%TO.N,Net-(J1-Pin_1)*%
X50987600Y-116500000D03*
%TO.P,v_dg0_a1,2,B*%
%TO.N,Net-(U3-IN2)*%
X55687600Y-116500000D03*
%TO.P,v_dg0_a1,3,C*%
%TO.N,Net-(J1-Pin_2)*%
X60387600Y-116500000D03*
%TD*%
%TO.P,v_dg0_a6,1,A*%
%TO.N,Net-(J1-Pin_1)*%
X132925300Y-116500000D03*
%TO.P,v_dg0_a6,2,B*%
%TO.N,Net-(U3-IN6)*%
X137625300Y-116500000D03*
%TO.P,v_dg0_a6,3,C*%
%TO.N,Net-(J1-Pin_2)*%
X142325300Y-116500000D03*
%TD*%
%TO.P,v_dg0_a59,1,A*%
%TO.N,Net-(J1-Pin_1)*%
X215000000Y-162500000D03*
%TO.P,v_dg0_a59,2,B*%
%TO.N,Net-(U6-IN8)*%
X219700000Y-162500000D03*
%TO.P,v_dg0_a59,3,C*%
%TO.N,Net-(J1-Pin_2)*%
X224400000Y-162500000D03*
%TD*%
%TO.P,v_dg0_a3,1,A*%
%TO.N,Net-(J1-Pin_1)*%
X83762700Y-116500000D03*
%TO.P,v_dg0_a3,2,B*%
%TO.N,Net-(U3-IN4)*%
X88462700Y-116500000D03*
%TO.P,v_dg0_a3,3,C*%
%TO.N,Net-(J1-Pin_2)*%
X93162700Y-116500000D03*
%TD*%
%TO.P,v_dg0_a37,1,A*%
%TO.N,Net-(J1-Pin_1)*%
X116535600Y-147500000D03*
%TO.P,v_dg0_a37,2,B*%
%TO.N,Net-(U5-IN11)*%
X121235600Y-147500000D03*
%TO.P,v_dg0_a37,3,C*%
%TO.N,Net-(J1-Pin_2)*%
X125935600Y-147500000D03*
%TD*%
%TO.P,v_dg0_a12,1,A*%
%TO.N,Net-(J1-Pin_1)*%
X231250700Y-116500000D03*
%TO.P,v_dg0_a12,2,B*%
%TO.N,Net-(U3-IN10)*%
X235950700Y-116500000D03*
%TO.P,v_dg0_a12,3,C*%
%TO.N,Net-(J1-Pin_2)*%
X240650700Y-116500000D03*
%TD*%
%TO.P,v_dg0_a18,1,A*%
%TO.N,Net-(J1-Pin_1)*%
X67374200Y-131500000D03*
%TO.P,v_dg0_a18,2,B*%
%TO.N,Net-(U4-IN5)*%
X72074200Y-131500000D03*
%TO.P,v_dg0_a18,3,C*%
%TO.N,Net-(J1-Pin_2)*%
X76774200Y-131500000D03*
%TD*%
%TO.P,v_dg0_a0,1,A*%
%TO.N,Net-(J1-Pin_1)*%
X34600000Y-116500000D03*
%TO.P,v_dg0_a0,2,B*%
%TO.N,Net-(U3-IN1)*%
X39300000Y-116500000D03*
%TO.P,v_dg0_a0,3,C*%
%TO.N,Net-(J1-Pin_2)*%
X44000000Y-116500000D03*
%TD*%
%TO.P,v_dg0_a35,1,A*%
%TO.N,Net-(J1-Pin_1)*%
X83761300Y-147500000D03*
%TO.P,v_dg0_a35,2,B*%
%TO.N,Net-(U5-IN7)*%
X88461300Y-147500000D03*
%TO.P,v_dg0_a35,3,C*%
%TO.N,Net-(J1-Pin_2)*%
X93161300Y-147500000D03*
%TD*%
%TO.P,v_dg0_a2,1,A*%
%TO.N,Net-(J1-Pin_1)*%
X67375100Y-116500000D03*
%TO.P,v_dg0_a2,2,B*%
%TO.N,Net-(U3-IN3)*%
X72075100Y-116500000D03*
%TO.P,v_dg0_a2,3,C*%
%TO.N,Net-(J1-Pin_2)*%
X76775100Y-116500000D03*
%TD*%
%TO.P,v_dg0_a30,1,A*%
%TO.N,Net-(J1-Pin_1)*%
X264019600Y-131500000D03*
%TO.P,v_dg0_a30,2,B*%
%TO.N,Net-(U4-IN14)*%
X268719600Y-131500000D03*
%TO.P,v_dg0_a30,3,C*%
%TO.N,Net-(J1-Pin_2)*%
X273419600Y-131500000D03*
%TD*%
%TO.P,v_dg0_a32,1,A*%
%TO.N,Net-(J1-Pin_1)*%
X34600000Y-147500000D03*
%TO.P,v_dg0_a32,2,B*%
%TO.N,Net-(U5-IN1)*%
X39300000Y-147500000D03*
%TO.P,v_dg0_a32,3,C*%
%TO.N,Net-(J1-Pin_2)*%
X44000000Y-147500000D03*
%TD*%
%TO.P,v_dg0_a9,1,A*%
%TO.N,Net-(J1-Pin_1)*%
X182088000Y-116500000D03*
%TO.P,v_dg0_a9,2,B*%
%TO.N,Net-(U3-IN11)*%
X186788000Y-116500000D03*
%TO.P,v_dg0_a9,3,C*%
%TO.N,Net-(J1-Pin_2)*%
X191488000Y-116500000D03*
%TD*%
%TO.P,v_dg0_a45,1,A*%
%TO.N,Net-(J1-Pin_1)*%
X247632400Y-147500000D03*
%TO.P,v_dg0_a45,2,B*%
%TO.N,Net-(U5-IN12)*%
X252332400Y-147500000D03*
%TO.P,v_dg0_a45,3,C*%
%TO.N,Net-(J1-Pin_2)*%
X257032400Y-147500000D03*
%TD*%
%TO.P,v_dg0_a52,1,A*%
%TO.N,Net-(J1-Pin_1)*%
X100200000Y-162500000D03*
%TO.P,v_dg0_a52,2,B*%
%TO.N,Net-(U6-IN9)*%
X104900000Y-162500000D03*
%TO.P,v_dg0_a52,3,C*%
%TO.N,Net-(J1-Pin_2)*%
X109600000Y-162500000D03*
%TD*%
%TO.P,v_dg0_a47,1,A*%
%TO.N,Net-(J1-Pin_1)*%
X280100000Y-147500000D03*
%TO.P,v_dg0_a47,2,B*%
%TO.N,Net-(U5-IN16)*%
X284800000Y-147500000D03*
%TO.P,v_dg0_a47,3,C*%
%TO.N,Net-(J1-Pin_2)*%
X289500000Y-147500000D03*
%TD*%
%TO.P,v_dg0_a4,1,A*%
%TO.N,Net-(J1-Pin_1)*%
X100150200Y-116500000D03*
%TO.P,v_dg0_a4,2,B*%
%TO.N,Net-(U3-IN5)*%
X104850200Y-116500000D03*
%TO.P,v_dg0_a4,3,C*%
%TO.N,Net-(J1-Pin_2)*%
X109550200Y-116500000D03*
%TD*%
%TO.P,v_dg0_a38,1,A*%
%TO.N,Net-(J1-Pin_1)*%
X132922700Y-147500000D03*
%TO.P,v_dg0_a38,2,B*%
%TO.N,Net-(U5-IN13)*%
X137622700Y-147500000D03*
%TO.P,v_dg0_a38,3,C*%
%TO.N,Net-(J1-Pin_2)*%
X142322700Y-147500000D03*
%TD*%
%TO.P,v_dg0_a51,1,A*%
%TO.N,Net-(J1-Pin_1)*%
X83800000Y-162500000D03*
%TO.P,v_dg0_a51,2,B*%
%TO.N,Net-(U6-IN7)*%
X88500000Y-162500000D03*
%TO.P,v_dg0_a51,3,C*%
%TO.N,Net-(J1-Pin_2)*%
X93200000Y-162500000D03*
%TD*%
%TO.P,v_dg0_a43,1,A*%
%TO.N,Net-(J1-Pin_1)*%
X214858200Y-147500000D03*
%TO.P,v_dg0_a43,2,B*%
%TO.N,Net-(U5-IN8)*%
X219558200Y-147500000D03*
%TO.P,v_dg0_a43,3,C*%
%TO.N,Net-(J1-Pin_2)*%
X224258200Y-147500000D03*
%TD*%
%TO.P,v_dg0_a44,1,A*%
%TO.N,Net-(J1-Pin_1)*%
X231245300Y-147500000D03*
%TO.P,v_dg0_a44,2,B*%
%TO.N,Net-(U5-IN10)*%
X235945300Y-147500000D03*
%TO.P,v_dg0_a44,3,C*%
%TO.N,Net-(J1-Pin_2)*%
X240645300Y-147500000D03*
%TD*%
%TO.P,v_dg0_a5,1,A*%
%TO.N,Net-(J1-Pin_1)*%
X116537800Y-116500000D03*
%TO.P,v_dg0_a5,2,B*%
%TO.N,Net-(U3-IN7)*%
X121237800Y-116500000D03*
%TO.P,v_dg0_a5,3,C*%
%TO.N,Net-(J1-Pin_2)*%
X125937800Y-116500000D03*
%TD*%
%TO.P,v_dg0_a23,1,A*%
%TO.N,Net-(J1-Pin_1)*%
X149309800Y-131500000D03*
%TO.P,v_dg0_a23,2,B*%
%TO.N,Net-(U4-IN15)*%
X154009800Y-131500000D03*
%TO.P,v_dg0_a23,3,C*%
%TO.N,Net-(J1-Pin_2)*%
X158709800Y-131500000D03*
%TD*%
%TO.P,v_dg0_a49,1,A*%
%TO.N,Net-(J1-Pin_1)*%
X51000000Y-162500000D03*
%TO.P,v_dg0_a49,2,B*%
%TO.N,Net-(U6-IN3)*%
X55700000Y-162500000D03*
%TO.P,v_dg0_a49,3,C*%
%TO.N,Net-(J1-Pin_2)*%
X60400000Y-162500000D03*
%TD*%
%TO.P,v_dg0_a17,1,A*%
%TO.N,Net-(J1-Pin_1)*%
X50987100Y-131500000D03*
%TO.P,v_dg0_a17,2,B*%
%TO.N,Net-(U4-IN3)*%
X55687100Y-131500000D03*
%TO.P,v_dg0_a17,3,C*%
%TO.N,Net-(J1-Pin_2)*%
X60387100Y-131500000D03*
%TD*%
%TO.P,v_dg0_a56,1,A*%
%TO.N,Net-(J1-Pin_1)*%
X165800000Y-162500000D03*
%TO.P,v_dg0_a56,2,B*%
%TO.N,Net-(U6-IN2)*%
X170500000Y-162500000D03*
%TO.P,v_dg0_a56,3,C*%
%TO.N,Net-(J1-Pin_2)*%
X175200000Y-162500000D03*
%TD*%
%TO.P,v_dg0_a54,1,A*%
%TO.N,Net-(J1-Pin_1)*%
X133000000Y-162500000D03*
%TO.P,v_dg0_a54,2,B*%
%TO.N,Net-(U6-IN13)*%
X137700000Y-162500000D03*
%TO.P,v_dg0_a54,3,C*%
%TO.N,Net-(J1-Pin_2)*%
X142400000Y-162500000D03*
%TD*%
%TO.P,v_dg0_a63,1,A*%
%TO.N,Net-(J1-Pin_1)*%
X280600000Y-162500000D03*
%TO.P,v_dg0_a63,2,B*%
%TO.N,Net-(U6-IN16)*%
X285300000Y-162500000D03*
%TO.P,v_dg0_a63,3,C*%
%TO.N,Net-(J1-Pin_2)*%
X290000000Y-162500000D03*
%TD*%
D13*
%TO.N,Net-(U5-IN15)*%
X155769000Y-75725800D03*
%TO.N,Net-(U5-IN16)*%
X177073000Y-141474000D03*
X176687000Y-76354000D03*
%TO.N,Net-(U6-IN1)*%
X41544900Y-71045600D03*
%TO.N,Net-(U6-IN4)*%
X196376000Y-68412900D03*
%TO.N,Net-(U6-IN9)*%
X243942000Y-76239700D03*
X243978000Y-159112000D03*
%TO.N,Net-(U6-IN3)*%
X68613400Y-69286900D03*
%TO.N,Net-(U6-IN8)*%
X222388000Y-67555100D03*
%TO.N,Net-(U6-IN11)*%
X240671000Y-77348200D03*
X238966000Y-159714000D03*
%TO.N,Net-(U6-IN14)*%
X271087000Y-79156200D03*
%TO.N,Net-(U6-IN15)*%
X156985000Y-81331800D03*
%TO.N,Net-(U6-IN10)*%
X240675000Y-76444200D03*
%TO.N,Net-(U6-IN7)*%
X232587000Y-66824600D03*
X232934000Y-154033000D03*
%TO.N,Net-(U6-IN16)*%
X271911000Y-78528700D03*
%TO.N,Net-(U6-IN6)*%
X205521000Y-63975300D03*
%TO.N,Net-(U6-IN2)*%
X187034000Y-160634000D03*
X196518000Y-63578700D03*
%TO.N,Net-(U6-IN5)*%
X233714000Y-66751700D03*
X233714000Y-153344000D03*
%TO.N,Net-(U6-IN12)*%
X244911000Y-78050600D03*
%TO.N,Net-(U5-IN13)*%
X140048000Y-73387600D03*
%TO.N,Net-(U5-IN11)*%
X136590000Y-72584200D03*
%TO.N,Net-(U5-IN6)*%
X200826000Y-66596800D03*
%TO.N,Net-(U5-IN5)*%
X178125000Y-144902000D03*
X179330000Y-66967300D03*
%TO.N,Net-(U5-IN1)*%
X184081000Y-63760300D03*
X178576000Y-143660000D03*
%TO.N,Net-(U5-IN10)*%
X185262000Y-76239700D03*
X188524000Y-145362000D03*
%TO.N,Net-(U5-IN4)*%
X184070000Y-67228900D03*
%TO.N,Net-(U5-IN9)*%
X106621000Y-72041500D03*
%TO.N,Net-(U5-IN14)*%
X180297000Y-76241300D03*
X184440000Y-144157000D03*
%TO.N,Net-(U5-IN7)*%
X177512000Y-145737000D03*
X177773000Y-66751700D03*
%TO.N,Net-(U5-IN2)*%
X172930000Y-63559400D03*
%TO.N,Net-(U5-IN8)*%
X215948000Y-67321900D03*
%TO.N,Net-(U5-IN3)*%
X175248000Y-67041400D03*
X173322000Y-144300000D03*
%TO.N,Net-(U5-IN12)*%
X181610000Y-76239700D03*
X184991000Y-144767000D03*
%TO.N,Net-(U4-IN15)*%
X151663000Y-82915600D03*
%TO.N,Net-(U4-IN8)*%
X140673000Y-67965400D03*
X140673000Y-123669000D03*
%TO.N,Net-(U4-IN4)*%
X145515000Y-67965400D03*
X145515000Y-129135000D03*
%TO.N,Net-(U4-IN9)*%
X116474000Y-76149300D03*
%TO.N,Net-(U4-IN12)*%
X249971000Y-81797400D03*
%TO.N,Net-(U4-IN13)*%
X135275000Y-81565400D03*
%TO.N,Net-(U4-IN6)*%
X115378000Y-126636000D03*
X117656000Y-66751700D03*
%TO.N,Net-(U4-IN11)*%
X122894000Y-76239700D03*
%TO.N,Net-(U4-IN5)*%
X73620000Y-66669000D03*
%TO.N,Net-(U4-IN2)*%
X172073000Y-67363700D03*
%TO.N,Net-(U4-IN7)*%
X91074100Y-63803500D03*
%TO.N,Net-(U4-IN16)*%
X286800000Y-85091200D03*
%TO.N,Net-(U4-IN10)*%
X229384000Y-80861900D03*
X229384000Y-129135000D03*
%TO.N,Net-(U4-IN14)*%
X270386000Y-82426600D03*
%TO.N,Net-(U4-IN3)*%
X119210000Y-63643400D03*
X103789000Y-123669000D03*
X57595700Y-123669000D03*
%TO.N,Net-(U4-IN1)*%
X114220000Y-129034000D03*
X123736000Y-63555600D03*
%TO.N,Net-(U3-IN15)*%
X211094000Y-70512200D03*
%TO.N,Net-(U3-IN5)*%
X96513700Y-68213500D03*
%TO.N,Net-(U3-IN12)*%
X252338000Y-71906800D03*
%TO.N,Net-(U3-IN11)*%
X185247000Y-72126400D03*
%TO.N,Net-(U3-IN2)*%
X67905000Y-66965100D03*
%TO.N,Net-(U3-IN3)*%
X67068100Y-66966300D03*
%TO.N,Net-(U3-IN13)*%
X203176000Y-91026200D03*
%TO.N,Net-(U3-IN4)*%
X88462700Y-67781000D03*
%TO.N,Net-(U3-IN14)*%
X256259000Y-71241300D03*
%TO.N,Net-(U3-IN7)*%
X61555000Y-66988400D03*
X61555000Y-108300000D03*
%TO.N,Net-(U3-IN10)*%
X235951000Y-89310600D03*
%TO.N,Net-(U3-IN16)*%
X273860000Y-69898300D03*
%TO.N,Net-(U3-IN1)*%
X39300000Y-63695600D03*
%TO.N,Net-(U3-IN6)*%
X62825000Y-66958900D03*
X137625000Y-96961200D03*
X67295800Y-96961200D03*
%TO.N,Net-(U3-IN8)*%
X152284000Y-107698000D03*
X59973000Y-66979200D03*
X59973000Y-107698000D03*
%TO.N,Net-(U3-IN9)*%
X160392000Y-72910300D03*
%TO.N,Net-(J1-Pin_15)*%
X18831000Y-70253700D03*
%TO.N,Net-(J1-Pin_7)*%
X197224000Y-107045000D03*
X197224000Y-64630500D03*
%TO.N,Net-(J1-Pin_8)*%
X170882000Y-105506000D03*
X170882000Y-66751700D03*
%TO.N,Net-(J1-Pin_9)*%
X79693500Y-64530300D03*
X79693500Y-102966000D03*
%TO.N,Net-(J1-Pin_10)*%
X20488400Y-67287800D03*
%TO.N,Net-(J1-Pin_6)*%
X22294000Y-61880200D03*
%TO.N,Net-(J1-Pin_5)*%
X109612000Y-65216400D03*
X60833700Y-63700000D03*
X60663900Y-111104000D03*
X109612000Y-62398400D03*
%TO.N,Net-(J1-Pin_4)*%
X74451100Y-113519000D03*
X74660400Y-66917600D03*
X74660400Y-61796700D03*
%TO.N,Net-(J1-Pin_3)*%
X70997800Y-77083000D03*
X70535800Y-114385000D03*
%TO.N,Net-(J1-Pin_1)*%
X171855000Y-75422300D03*
X124775000Y-66956800D03*
X58166700Y-62494900D03*
X117846000Y-80180400D03*
X231245000Y-76449900D03*
X241945000Y-66953300D03*
X58166700Y-76345700D03*
X172123000Y-63498400D03*
%TO.N,Net-(J1-Pin_2)*%
X72740200Y-76452900D03*
X175102000Y-76846600D03*
%TD*%
D14*
%TO.N,Net-(U5-IN15)*%
X154010000Y-147500000D02*
X154889500Y-146620500D01*
X155769000Y-145741000D02*
X155769000Y-75725800D01*
X154889500Y-146620500D02*
X155769000Y-145741000D01*
X154889300Y-146620500D02*
X154009800Y-147500000D01*
X154889500Y-146620500D02*
X154889300Y-146620500D01*
%TO.N,Net-(U5-IN16)*%
X177073000Y-76739400D02*
X176687000Y-76354000D01*
X177073000Y-141474000D02*
X177073000Y-76739400D01*
%TO.N,Net-(U6-IN1)*%
X41544900Y-160255000D02*
X41544900Y-71045600D01*
X39300000Y-162500000D02*
X41544900Y-160255000D01*
%TO.N,Net-(U6-IN4)*%
X189536000Y-75253100D02*
X196376000Y-68412900D01*
X189536000Y-159864000D02*
X189536000Y-75253100D01*
X186900000Y-162500000D02*
X189536000Y-159864000D01*
%TO.N,Net-(U6-IN9)*%
X243978000Y-76275600D02*
X243978000Y-159112000D01*
X243942000Y-76239700D02*
X243978000Y-76275600D01*
%TO.N,Net-(U6-IN3)*%
X68613400Y-105906000D02*
X68613400Y-69286900D01*
X58197400Y-116322000D02*
X68613400Y-105906000D01*
X58197400Y-160003000D02*
X58197400Y-116322000D01*
X55700000Y-162500000D02*
X58197400Y-160003000D01*
%TO.N,Net-(U6-IN8)*%
X222388000Y-159812000D02*
X222388000Y-67555100D01*
X219700000Y-162500000D02*
X222388000Y-159812000D01*
%TO.N,Net-(U6-IN11)*%
X238966000Y-79053500D02*
X238966000Y-159714000D01*
X240671000Y-77348200D02*
X238966000Y-79053500D01*
%TO.N,Net-(U6-IN14)*%
X271087000Y-160313000D02*
X271087000Y-79156200D01*
X268900000Y-162500000D02*
X271087000Y-160313000D01*
%TO.N,Net-(U6-IN15)*%
X156985000Y-159615000D02*
X156985000Y-81331800D01*
X154100000Y-162500000D02*
X156985000Y-159615000D01*
%TO.N,Net-(U6-IN10)*%
X238049000Y-160551000D02*
X236100000Y-162500000D01*
X238049000Y-79070000D02*
X238049000Y-160551000D01*
X240675000Y-76444200D02*
X238049000Y-79070000D01*
%TO.N,Net-(U6-IN7)*%
X232934000Y-67171300D02*
X232934000Y-154033000D01*
X232587000Y-66824600D02*
X232934000Y-67171300D01*
%TO.N,Net-(U6-IN16)*%
X271911000Y-110856000D02*
X271911000Y-78528700D01*
X277811000Y-116756000D02*
X271911000Y-110856000D01*
X277811000Y-142844000D02*
X277811000Y-116756000D01*
X282450000Y-147484000D02*
X277811000Y-142844000D01*
X282450000Y-159650000D02*
X282450000Y-147484000D01*
X285300000Y-162500000D02*
X282450000Y-159650000D01*
%TO.N,Net-(U6-IN6)*%
X205521000Y-160279000D02*
X205521000Y-63975300D01*
X203300000Y-162500000D02*
X205521000Y-160279000D01*
%TO.N,Net-(U6-IN2)*%
X189134000Y-70962300D02*
X196518000Y-63578700D01*
X189134000Y-158533000D02*
X189134000Y-70962300D01*
X187034000Y-160634000D02*
X189134000Y-158533000D01*
%TO.N,Net-(U6-IN5)*%
X233714000Y-66751700D02*
X233714000Y-153344000D01*
%TO.N,Net-(U6-IN12)*%
X249355000Y-159355000D02*
X252500000Y-162500000D01*
X249355000Y-82494200D02*
X249355000Y-159355000D01*
X244911000Y-78050600D02*
X249355000Y-82494200D01*
%TO.N,Net-(U5-IN13)*%
X140048000Y-145075000D02*
X138835500Y-146287500D01*
X140048000Y-73387600D02*
X140048000Y-145075000D01*
X138835500Y-146287500D02*
X137623000Y-147500000D01*
X138835200Y-146287500D02*
X137622700Y-147500000D01*
X138835500Y-146287500D02*
X138835200Y-146287500D01*
%TO.N,Net-(U5-IN11)*%
X121236000Y-147500000D02*
X122366000Y-146370000D01*
X123496000Y-85678300D02*
X136590000Y-72584200D01*
X123496000Y-145240000D02*
X123496000Y-85678300D01*
X122366000Y-146370000D02*
X123496000Y-145240000D01*
X122365600Y-146370000D02*
X121235600Y-147500000D01*
X122366000Y-146370000D02*
X122365600Y-146370000D01*
%TO.N,Net-(U5-IN6)*%
X203171000Y-147500000D02*
X201998500Y-146327000D01*
X200826000Y-145154000D02*
X200826000Y-66596800D01*
X201998500Y-146327000D02*
X200826000Y-145154000D01*
X203171100Y-147499600D02*
X203171100Y-147500000D01*
X201998500Y-146327000D02*
X203171100Y-147499600D01*
%TO.N,Net-(U5-IN5)*%
X178174000Y-68123100D02*
X179330000Y-66967300D01*
X178174000Y-141889000D02*
X178174000Y-68123100D01*
X177953000Y-142111000D02*
X178174000Y-141889000D01*
X177953000Y-144730000D02*
X177953000Y-142111000D01*
X178125000Y-144902000D02*
X177953000Y-144730000D01*
%TO.N,Net-(U5-IN1)*%
X178576000Y-69264900D02*
X178576000Y-143660000D01*
X184081000Y-63760300D02*
X178576000Y-69264900D01*
%TO.N,Net-(U5-IN10)*%
X188524000Y-79501700D02*
X188524000Y-145362000D01*
X185262000Y-76239700D02*
X188524000Y-79501700D01*
%TO.N,Net-(U5-IN4)*%
X184070000Y-76597900D02*
X184070000Y-67228900D01*
X184862000Y-77390100D02*
X184070000Y-76597900D01*
X184862000Y-142950000D02*
X184862000Y-77390100D01*
X186784000Y-144871000D02*
X184862000Y-142950000D01*
X186784000Y-147500000D02*
X186784000Y-144871000D01*
%TO.N,Net-(U5-IN9)*%
X104848000Y-147500000D02*
X104017000Y-146669000D01*
X106621000Y-118731000D02*
X106621000Y-72041500D01*
X103186000Y-122166000D02*
X106621000Y-118731000D01*
X103186000Y-145838000D02*
X103186000Y-122166000D01*
X104017000Y-146669000D02*
X103186000Y-145838000D01*
X104017400Y-146669000D02*
X104848400Y-147500000D01*
X104017000Y-146669000D02*
X104017400Y-146669000D01*
%TO.N,Net-(U5-IN14)*%
X184440000Y-80383500D02*
X184440000Y-144157000D01*
X180297000Y-76241300D02*
X184440000Y-80383500D01*
%TO.N,Net-(U5-IN7)*%
X177773000Y-141723000D02*
X177773000Y-66751700D01*
X177512000Y-141984000D02*
X177773000Y-141723000D01*
X177512000Y-145737000D02*
X177512000Y-141984000D01*
%TO.N,Net-(U5-IN2)*%
X170397000Y-147500000D02*
X170397000Y-146100000D01*
X172876000Y-63613500D02*
X172930000Y-63559400D01*
X172876000Y-133318000D02*
X172876000Y-63613500D01*
X170397000Y-135797000D02*
X172876000Y-133318000D01*
X170397000Y-146100000D02*
X170397000Y-135797000D01*
X170396900Y-146100100D02*
X170396900Y-147500000D01*
X170397000Y-146100000D02*
X170396900Y-146100100D01*
%TO.N,Net-(U5-IN8)*%
X219558000Y-147500000D02*
X219558200Y-147499800D01*
X221239000Y-72613400D02*
X215948000Y-67321900D01*
X221239000Y-145819000D02*
X221239000Y-72613400D01*
X219558200Y-147499800D02*
X221239000Y-145819000D01*
X219558200Y-147499800D02*
X219558200Y-147500000D01*
%TO.N,Net-(U5-IN3)*%
X173322000Y-68967400D02*
X173322000Y-144300000D01*
X175248000Y-67041400D02*
X173322000Y-68967400D01*
%TO.N,Net-(U5-IN12)*%
X181009000Y-75639500D02*
X181610000Y-76239700D01*
X180047000Y-75639500D02*
X181009000Y-75639500D01*
X179688000Y-75998400D02*
X180047000Y-75639500D01*
X179688000Y-107887000D02*
X179688000Y-75998400D01*
X183838000Y-112037000D02*
X179688000Y-107887000D01*
X183838000Y-144409000D02*
X183838000Y-112037000D01*
X184195000Y-144767000D02*
X183838000Y-144409000D01*
X184991000Y-144767000D02*
X184195000Y-144767000D01*
%TO.N,Net-(U4-IN15)*%
X154010000Y-131500000D02*
X154009800Y-131499800D01*
X151663000Y-129153000D02*
X151663000Y-82915600D01*
X154009800Y-131499800D02*
X151663000Y-129153000D01*
X154009800Y-131499800D02*
X154009800Y-131500000D01*
%TO.N,Net-(U4-IN8)*%
X140673000Y-123669000D02*
X140673000Y-67965400D01*
%TO.N,Net-(U4-IN4)*%
X145515000Y-67965400D02*
X145515000Y-129135000D01*
%TO.N,Net-(U4-IN9)*%
X104848000Y-131500000D02*
X104848400Y-131499600D01*
X107600000Y-85023000D02*
X116474000Y-76149300D01*
X107600000Y-128748000D02*
X107600000Y-85023000D01*
X104848400Y-131499600D02*
X107600000Y-128748000D01*
X104848400Y-131499600D02*
X104848400Y-131500000D01*
%TO.N,Net-(U4-IN12)*%
X252332000Y-131500000D02*
X251151500Y-130319500D01*
X249971000Y-129139000D02*
X249971000Y-81797400D01*
X251151500Y-130319500D02*
X249971000Y-129139000D01*
X251151900Y-130319500D02*
X252332400Y-131500000D01*
X251151500Y-130319500D02*
X251151900Y-130319500D01*
%TO.N,Net-(U4-IN13)*%
X137623000Y-131500000D02*
X136449000Y-130326500D01*
X135275000Y-129153000D02*
X135275000Y-81565400D01*
X136449000Y-130326500D02*
X135275000Y-129153000D01*
X136449200Y-130326500D02*
X137622700Y-131500000D01*
X136449000Y-130326500D02*
X136449200Y-130326500D01*
%TO.N,Net-(U4-IN6)*%
X117656000Y-75818600D02*
X117656000Y-66751700D01*
X113592000Y-79882800D02*
X117656000Y-75818600D01*
X113592000Y-129313000D02*
X113592000Y-79882800D01*
X113927000Y-129649000D02*
X113592000Y-129313000D01*
X114474000Y-129649000D02*
X113927000Y-129649000D01*
X115378000Y-128745000D02*
X114474000Y-129649000D01*
X115378000Y-126636000D02*
X115378000Y-128745000D01*
%TO.N,Net-(U4-IN11)*%
X121236000Y-131500000D02*
X122065000Y-130671000D01*
X122894000Y-129842000D02*
X122894000Y-76239700D01*
X122065000Y-130671000D02*
X122894000Y-129842000D01*
X122064600Y-130671000D02*
X121235600Y-131500000D01*
X122065000Y-130671000D02*
X122064600Y-130671000D01*
%TO.N,Net-(U4-IN5)*%
X72125100Y-68163900D02*
X73620000Y-66669000D01*
X72125100Y-112770000D02*
X72125100Y-68163900D01*
X73778200Y-114423000D02*
X72125100Y-112770000D01*
X73778200Y-129796000D02*
X73778200Y-114423000D01*
X72074200Y-131500000D02*
X73778200Y-129796000D01*
%TO.N,Net-(U4-IN2)*%
X170397000Y-131500000D02*
X171435500Y-130461000D01*
X172474000Y-67765400D02*
X172073000Y-67363700D01*
X172474000Y-129422000D02*
X172474000Y-67765400D01*
X171435500Y-130461000D02*
X172474000Y-129422000D01*
X170396900Y-131499600D02*
X170396900Y-131500000D01*
X171435500Y-130461000D02*
X170396900Y-131499600D01*
%TO.N,Net-(U4-IN7)*%
X91074100Y-128887000D02*
X91074100Y-63803500D01*
X88461300Y-131500000D02*
X91074100Y-128887000D01*
%TO.N,Net-(U4-IN16)*%
X285107000Y-131500000D02*
X285953500Y-130653000D01*
X286800000Y-129806000D02*
X286800000Y-85091200D01*
X285953500Y-130653000D02*
X286800000Y-129806000D01*
X285106700Y-131499800D02*
X285106700Y-131500000D01*
X285953500Y-130653000D02*
X285106700Y-131499800D01*
%TO.N,Net-(U4-IN10)*%
X229384000Y-80861900D02*
X229384000Y-129135000D01*
%TO.N,Net-(U4-IN14)*%
X268720000Y-131500000D02*
X269553000Y-130667000D01*
X270386000Y-129834000D02*
X270386000Y-82426600D01*
X269553000Y-130667000D02*
X270386000Y-129834000D01*
X269552600Y-130667000D02*
X268719600Y-131500000D01*
X269553000Y-130667000D02*
X269552600Y-130667000D01*
%TO.N,Net-(U4-IN3)*%
X107198000Y-120259000D02*
X103789000Y-123669000D01*
X107198000Y-75654800D02*
X107198000Y-120259000D01*
X119210000Y-63643400D02*
X107198000Y-75654800D01*
X57595700Y-129591000D02*
X57595700Y-123669000D01*
X55687100Y-131500000D02*
X57595700Y-129591000D01*
%TO.N,Net-(U4-IN1)*%
X114220000Y-82926800D02*
X114220000Y-129034000D01*
X123736000Y-73410300D02*
X114220000Y-82926800D01*
X123736000Y-63555600D02*
X123736000Y-73410300D01*
%TO.N,Net-(U3-IN15)*%
X211094000Y-108031000D02*
X211094000Y-70512200D01*
X219563000Y-116500000D02*
X211094000Y-108031000D01*
X219563100Y-116500000D02*
X219563000Y-116500000D01*
%TO.N,Net-(U3-IN5)*%
X104850000Y-116500000D02*
X103225100Y-114875200D01*
X103225400Y-114875200D02*
X104850200Y-116500000D01*
X103225100Y-114875200D02*
X103225400Y-114875200D01*
X96513700Y-108164000D02*
X96513700Y-68213500D01*
X103225100Y-114875200D02*
X96513700Y-108164000D01*
%TO.N,Net-(U3-IN12)*%
X252338000Y-116500000D02*
X252338000Y-98248000D01*
X252338000Y-98248000D02*
X252338000Y-71906800D01*
X252338200Y-98248200D02*
X252338200Y-116500000D01*
X252338000Y-98248000D02*
X252338200Y-98248200D01*
%TO.N,Net-(U3-IN11)*%
X184629000Y-72743900D02*
X185247000Y-72126400D01*
X184629000Y-76506200D02*
X184629000Y-72743900D01*
X186788000Y-78665100D02*
X184629000Y-76506200D01*
X186788000Y-116500000D02*
X186788000Y-78665100D01*
%TO.N,Net-(U3-IN2)*%
X56118600Y-116500000D02*
X55687600Y-116500000D01*
X67905000Y-104714000D02*
X56118600Y-116500000D01*
X67905000Y-66965100D02*
X67905000Y-104714000D01*
%TO.N,Net-(U3-IN3)*%
X71702900Y-116128000D02*
X72075100Y-116500000D01*
X71702900Y-69869200D02*
X71702900Y-116128000D01*
X68197100Y-66363400D02*
X71702900Y-69869200D01*
X67595500Y-66363400D02*
X68197100Y-66363400D01*
X67068100Y-66890800D02*
X67595500Y-66363400D01*
X67068100Y-66966300D02*
X67068100Y-66890800D01*
%TO.N,Net-(U3-IN13)*%
X203176000Y-116500000D02*
X203176000Y-103763100D01*
X203176000Y-103763100D02*
X203176000Y-91026200D01*
X203175600Y-103763500D02*
X203175600Y-116500000D01*
X203176000Y-103763100D02*
X203175600Y-103763500D01*
%TO.N,Net-(U3-IN4)*%
X88462700Y-116500000D02*
X88462700Y-67781000D01*
%TO.N,Net-(U3-IN14)*%
X268726000Y-116500000D02*
X268725800Y-116499800D01*
X256259000Y-104033000D02*
X256259000Y-71241300D01*
X268725800Y-116499800D02*
X256259000Y-104033000D01*
X268725800Y-116499800D02*
X268725800Y-116500000D01*
%TO.N,Net-(U3-IN7)*%
X61555000Y-66988400D02*
X61555000Y-108300000D01*
%TO.N,Net-(U3-IN10)*%
X235951000Y-116500000D02*
X235951000Y-102905300D01*
X235951000Y-102905300D02*
X235951000Y-89310600D01*
X235950700Y-102905600D02*
X235950700Y-116500000D01*
X235951000Y-102905300D02*
X235950700Y-102905600D01*
%TO.N,Net-(U3-IN16)*%
X273860000Y-105247000D02*
X273860000Y-69898300D01*
X285113000Y-116500000D02*
X273860000Y-105247000D01*
X285113300Y-116500000D02*
X285113000Y-116500000D01*
%TO.N,Net-(U3-IN1)*%
X39300000Y-116500000D02*
X39300000Y-63695600D01*
%TO.N,Net-(U3-IN6)*%
X67295800Y-71429700D02*
X62825000Y-66958900D01*
X67295800Y-96961200D02*
X67295800Y-71429700D01*
X137625000Y-116500000D02*
X137625000Y-106730600D01*
X137625000Y-106730600D02*
X137625000Y-96961200D01*
X137625300Y-106730900D02*
X137625300Y-116500000D01*
X137625000Y-106730600D02*
X137625300Y-106730900D01*
%TO.N,Net-(U3-IN8)*%
X59973000Y-66979200D02*
X59973000Y-107698000D01*
X154013000Y-116500000D02*
X154012900Y-116499900D01*
X152284000Y-114771000D02*
X152284000Y-107698000D01*
X154012900Y-116499900D02*
X152284000Y-114771000D01*
X154012900Y-116499900D02*
X154012900Y-116500000D01*
%TO.N,Net-(U3-IN9)*%
X170400000Y-116500000D02*
X168775200Y-114875200D01*
X160392000Y-106492000D02*
X160392000Y-72910300D01*
X168775200Y-114875200D02*
X160392000Y-106492000D01*
X168775600Y-114875200D02*
X170400400Y-116500000D01*
X168775200Y-114875200D02*
X168775600Y-114875200D01*
%TO.N,Net-(J1-Pin_15)*%
X18831000Y-87726000D02*
X18831000Y-70253700D01*
%TO.N,Net-(J1-Pin_7)*%
X197224000Y-64630500D02*
X197224000Y-107045000D01*
%TO.N,Net-(J1-Pin_8)*%
X170882000Y-66751700D02*
X170882000Y-105506000D01*
%TO.N,Net-(J1-Pin_9)*%
X79693500Y-64530300D02*
X79693500Y-102966000D01*
%TO.N,Net-(J1-Pin_10)*%
X20488400Y-98768600D02*
X18831000Y-100426000D01*
X20488400Y-67287800D02*
X20488400Y-98768600D01*
%TO.N,Net-(J1-Pin_6)*%
X22294000Y-107123000D02*
X22294000Y-61880200D01*
X18831000Y-110586000D02*
X22294000Y-107123000D01*
%TO.N,Net-(J1-Pin_5)*%
X60663900Y-63869800D02*
X60833700Y-63700000D01*
X60663900Y-111104000D02*
X60663900Y-63869800D01*
X109612000Y-65216400D02*
X109612000Y-62398400D01*
%TO.N,Net-(J1-Pin_4)*%
X74660400Y-66917600D02*
X74660400Y-61796700D01*
X74451100Y-67126900D02*
X74451100Y-113519000D01*
X74660400Y-66917600D02*
X74451100Y-67126900D01*
%TO.N,Net-(J1-Pin_3)*%
X70535800Y-77545000D02*
X70997800Y-77083000D01*
X70535800Y-114385000D02*
X70535800Y-77545000D01*
%TO.N,Net-(J1-Pin_1)*%
X34600000Y-162500000D02*
X34600000Y-147500000D01*
X165700000Y-118173000D02*
X165700000Y-116500000D01*
X58166700Y-76345700D02*
X58166700Y-62494900D01*
X231245000Y-116505000D02*
X231245000Y-117830000D01*
X280100000Y-162000000D02*
X280100000Y-147500000D01*
X280600000Y-162500000D02*
X280100000Y-162000000D01*
X124775000Y-73251700D02*
X124775000Y-66956800D01*
X117846000Y-80180400D02*
X124775000Y-73251700D01*
X182084000Y-147500000D02*
X182084000Y-131500000D01*
X34600000Y-116500000D02*
X34600000Y-131500000D01*
X50987100Y-162487000D02*
X50987100Y-147500000D01*
X51000000Y-162500000D02*
X50987100Y-162487000D01*
X67400000Y-147526000D02*
X67374200Y-147500000D01*
X67400000Y-162500000D02*
X67400000Y-147526000D01*
X182084000Y-116504000D02*
X182084000Y-131500000D01*
X182088000Y-116500000D02*
X182084000Y-116504000D01*
X50987100Y-116500000D02*
X50987100Y-131500000D01*
X50987600Y-116500000D02*
X50987100Y-116500000D01*
X182084000Y-162384000D02*
X182084000Y-147500000D01*
X182200000Y-162500000D02*
X182084000Y-162384000D01*
X241103000Y-66111700D02*
X241945000Y-66953300D01*
X232413000Y-66111700D02*
X241103000Y-66111700D01*
X231245000Y-67279000D02*
X232413000Y-66111700D01*
X231245000Y-76449900D02*
X231245000Y-67279000D01*
X50987100Y-131500000D02*
X50987100Y-147500000D01*
X172073000Y-75639600D02*
X171855000Y-75422300D01*
X172073000Y-117175000D02*
X172073000Y-75639600D01*
X171075000Y-118173000D02*
X172073000Y-117175000D01*
X165700000Y-118173000D02*
X171075000Y-118173000D01*
X67374200Y-116501000D02*
X67374200Y-131500000D01*
X67375100Y-116500000D02*
X67374200Y-116501000D01*
X83761300Y-116501000D02*
X83761300Y-131500000D01*
X83762700Y-116500000D02*
X83761300Y-116501000D01*
X58166700Y-109321000D02*
X50987600Y-116500000D01*
X58166700Y-76345700D02*
X58166700Y-109321000D01*
X67374200Y-147500000D02*
X67374200Y-131500000D01*
X172123000Y-66459200D02*
X172123000Y-63498400D01*
X171431000Y-67151300D02*
X172123000Y-66459200D01*
X171431000Y-74998200D02*
X171431000Y-67151300D01*
X171855000Y-75422300D02*
X171431000Y-74998200D01*
X34600000Y-131500000D02*
X34600000Y-147500000D01*
X83761300Y-162461000D02*
X83761300Y-147500000D01*
X83800000Y-162500000D02*
X83761300Y-162461000D01*
X83761300Y-147500000D02*
X83761300Y-131500000D01*
X231245000Y-117830000D02*
X231245000Y-116505000D01*
X231245000Y-116505000D02*
X231245000Y-76449900D01*
X231251000Y-116500000D02*
X231248000Y-116502500D01*
X231248000Y-116502500D02*
X231245000Y-116505000D01*
X231248200Y-116502500D02*
X231250700Y-116500000D01*
X231248000Y-116502500D02*
X231248200Y-116502500D01*
X165697000Y-162397000D02*
X165697000Y-140287000D01*
X165800000Y-162500000D02*
X165697000Y-162397000D01*
X165696900Y-140287100D02*
X165696900Y-147500000D01*
X165697000Y-140287000D02*
X165696900Y-140287100D01*
X116538000Y-81488700D02*
X117846000Y-80180400D01*
X116538000Y-116500000D02*
X116538000Y-81488700D01*
X116537800Y-116500200D02*
X116538000Y-116500000D01*
X116537800Y-116500200D02*
X116537800Y-116500000D01*
X247635000Y-116503000D02*
X247638000Y-116500000D01*
X247635200Y-116503000D02*
X247638200Y-116500000D01*
X247635000Y-116503000D02*
X247635200Y-116503000D01*
X132923000Y-162423000D02*
X133000000Y-162500000D01*
X132923000Y-144753400D02*
X132923000Y-162423000D01*
X132922700Y-144753700D02*
X132922700Y-147500000D01*
X132923000Y-144753400D02*
X132922700Y-144753700D01*
X198471100Y-139437400D02*
X198471100Y-131500000D01*
X198471000Y-139437500D02*
X198471100Y-139437400D01*
X280413000Y-116500000D02*
X280410000Y-116503500D01*
X280413300Y-116500200D02*
X280413300Y-116500000D01*
X280410000Y-116503500D02*
X280413300Y-116500200D01*
X214860500Y-116502500D02*
X214863000Y-116500000D01*
X214860600Y-116502500D02*
X214863100Y-116500000D01*
X214860500Y-116502500D02*
X214860600Y-116502500D01*
X149313000Y-116500000D02*
X149312900Y-116500100D01*
X149312900Y-116500100D02*
X149312900Y-116500000D01*
X100149000Y-116501000D02*
X100150000Y-116500000D01*
X100149200Y-116501000D02*
X100150200Y-116500000D01*
X100149000Y-116501000D02*
X100149200Y-116501000D01*
X149309800Y-132364100D02*
X149310000Y-132364300D01*
X149309800Y-131500000D02*
X149309800Y-132364100D01*
X149310000Y-116503000D02*
X149310000Y-132364300D01*
X149312900Y-116500100D02*
X149310000Y-116503000D01*
X116536000Y-162436000D02*
X116536000Y-146142500D01*
X116600000Y-162500000D02*
X116536000Y-162436000D01*
X116535600Y-146142900D02*
X116535600Y-147500000D01*
X116536000Y-146142500D02*
X116535600Y-146142900D01*
X214858200Y-147500000D02*
X214858000Y-147500000D01*
X214858000Y-162358000D02*
X214858000Y-147500000D01*
X215000000Y-162500000D02*
X214858000Y-162358000D01*
X132925000Y-116500000D02*
X132924000Y-116501500D01*
X132925300Y-116500200D02*
X132925300Y-116500000D01*
X132924000Y-116501500D02*
X132925300Y-116500200D01*
X100148000Y-116502000D02*
X100149000Y-116501000D01*
X100148000Y-139475000D02*
X100148000Y-116502000D01*
X100148400Y-139474600D02*
X100148400Y-131500000D01*
X100148000Y-139475000D02*
X100148400Y-139474600D01*
X231245300Y-147500000D02*
X231245000Y-147500000D01*
X231245000Y-162345000D02*
X231245000Y-147500000D01*
X231400000Y-162500000D02*
X231245000Y-162345000D01*
X231245000Y-147500000D02*
X231245000Y-138517500D01*
X231245000Y-138517500D02*
X231245000Y-117830000D01*
X231245300Y-138517200D02*
X231245300Y-131500000D01*
X231245000Y-138517500D02*
X231245300Y-138517200D01*
X116536000Y-146142500D02*
X116536000Y-136959900D01*
X116536000Y-116502000D02*
X116537800Y-116500200D01*
X116536000Y-136959900D02*
X116536000Y-116502000D01*
X116535600Y-136959500D02*
X116535600Y-131500000D01*
X116536000Y-136959900D02*
X116535600Y-136959500D01*
X132923000Y-116503000D02*
X132923000Y-135918600D01*
X132924000Y-116501500D02*
X132923000Y-116503000D01*
X132923000Y-135918600D02*
X132923000Y-144753400D01*
X132922700Y-135918300D02*
X132922700Y-131500000D01*
X132923000Y-135918600D02*
X132922700Y-135918300D01*
X280407000Y-116507000D02*
X280407000Y-124003500D01*
X280410000Y-116503500D02*
X280407000Y-116507000D01*
X280407000Y-124003500D02*
X280407000Y-131500000D01*
X280406700Y-124003800D02*
X280406700Y-131500000D01*
X280407000Y-124003500D02*
X280406700Y-124003800D01*
X264019600Y-131500000D02*
X264020000Y-131500000D01*
X247632400Y-147500000D02*
X247632000Y-147500000D01*
X247632000Y-162332000D02*
X247632000Y-147500000D01*
X247800000Y-162500000D02*
X247632000Y-162332000D01*
X100148400Y-145850200D02*
X100148000Y-145849800D01*
X100148400Y-147500000D02*
X100148400Y-145850200D01*
X100148000Y-162448000D02*
X100148000Y-145849800D01*
X100200000Y-162500000D02*
X100148000Y-162448000D01*
X100148000Y-145849800D02*
X100148000Y-139475000D01*
X264026000Y-131494000D02*
X264026000Y-123997000D01*
X264020000Y-131500000D02*
X264026000Y-131494000D01*
X264026000Y-123997000D02*
X264026000Y-116500000D01*
X264025800Y-123996800D02*
X264025800Y-116500000D01*
X264026000Y-123997000D02*
X264025800Y-123996800D01*
X214858200Y-131500000D02*
X214858000Y-131500000D01*
X214858000Y-147500000D02*
X214858000Y-131500000D01*
X214858000Y-116505000D02*
X214860500Y-116502500D01*
X214858000Y-131500000D02*
X214858000Y-116505000D01*
X198471100Y-147500000D02*
X198471000Y-147500000D01*
X198471000Y-139437500D02*
X198471000Y-147500000D01*
X198471000Y-162371000D02*
X198600000Y-162500000D01*
X198471000Y-147500000D02*
X198471000Y-162371000D01*
X264019600Y-147500000D02*
X264020000Y-147500000D01*
X264020000Y-162320000D02*
X264020000Y-147500000D01*
X264200000Y-162500000D02*
X264020000Y-162320000D01*
X264020000Y-147500000D02*
X264020000Y-131500000D01*
X247632000Y-147500000D02*
X247632000Y-132003000D01*
X247632000Y-116506000D02*
X247635000Y-116503000D01*
X247632000Y-132003000D02*
X247632000Y-116506000D01*
X247632400Y-132002600D02*
X247632400Y-131500000D01*
X247632000Y-132003000D02*
X247632400Y-132002600D01*
X149309800Y-147500000D02*
X149310000Y-147500000D01*
X149310000Y-132364300D02*
X149310000Y-147500000D01*
X149310000Y-162410000D02*
X149400000Y-162500000D01*
X149310000Y-147500000D02*
X149310000Y-162410000D01*
X198475600Y-116500000D02*
X198475800Y-116500200D01*
X198476000Y-116500000D02*
X198475800Y-116500200D01*
X198471000Y-116504000D02*
X198471000Y-139437500D01*
X198475800Y-116500200D02*
X198471000Y-116504000D01*
X165700400Y-116500000D02*
X165700000Y-116500000D01*
X165696900Y-131500000D02*
X165697000Y-131500000D01*
X165697000Y-140287000D02*
X165697000Y-131500000D01*
X165697000Y-118177000D02*
X165700000Y-118173000D01*
X165697000Y-131500000D02*
X165697000Y-118177000D01*
%TO.N,Net-(J1-Pin_2)*%
X44000000Y-162500000D02*
X44000000Y-147500000D01*
X60387100Y-116500000D02*
X60387100Y-131500000D01*
X60387600Y-116500000D02*
X60387100Y-116500000D01*
X191484000Y-147500000D02*
X191484000Y-131500000D01*
X76774200Y-147500000D02*
X76774200Y-131500000D01*
X60387100Y-147500000D02*
X60387100Y-131500000D01*
X72740200Y-112659000D02*
X72740200Y-76452900D01*
X76581000Y-116500000D02*
X72740200Y-112659000D01*
X76775100Y-116500000D02*
X76581000Y-116500000D01*
X60387100Y-162487000D02*
X60387100Y-147500000D01*
X60400000Y-162500000D02*
X60387100Y-162487000D01*
X93161300Y-116501000D02*
X93161300Y-131500000D01*
X93162700Y-116500000D02*
X93161300Y-116501000D01*
X76774200Y-116501000D02*
X76775100Y-116500000D01*
X76774200Y-131500000D02*
X76774200Y-116501000D01*
X76800000Y-147526000D02*
X76774200Y-147500000D01*
X76800000Y-162500000D02*
X76800000Y-147526000D01*
X44000000Y-131500000D02*
X44000000Y-147500000D01*
X191484000Y-116504000D02*
X191484000Y-131500000D01*
X191488000Y-116500000D02*
X191484000Y-116504000D01*
X191600000Y-147616000D02*
X191484000Y-147500000D01*
X191600000Y-162500000D02*
X191600000Y-147616000D01*
X93161300Y-147500000D02*
X93161300Y-131500000D01*
X44000000Y-116500000D02*
X44000000Y-131500000D01*
X289500000Y-162000000D02*
X289500000Y-147500000D01*
X290000000Y-162500000D02*
X289500000Y-162000000D01*
X93161300Y-162461000D02*
X93161300Y-147500000D01*
X93200000Y-162500000D02*
X93161300Y-162461000D01*
X175200000Y-147603000D02*
X175200000Y-162500000D01*
X175097000Y-147500000D02*
X175200000Y-147603000D01*
X175097000Y-146100000D02*
X175097000Y-147500000D01*
X175096900Y-146100100D02*
X175096900Y-147500000D01*
X175097000Y-146100000D02*
X175096900Y-146100100D01*
X257035000Y-116503000D02*
X257038000Y-116500000D01*
X257035200Y-116503000D02*
X257038200Y-116500000D01*
X257035000Y-116503000D02*
X257035200Y-116503000D01*
X224263000Y-116500000D02*
X224260500Y-116502500D01*
X224260600Y-116502500D02*
X224263100Y-116500000D01*
X224260500Y-116502500D02*
X224260600Y-116502500D01*
X289807000Y-131500000D02*
X289806700Y-131500300D01*
X289807000Y-116507000D02*
X289807000Y-131500000D01*
X289813000Y-116500000D02*
X289807000Y-116507000D01*
X289500000Y-131807000D02*
X289500000Y-147500000D01*
X289806700Y-131500300D02*
X289500000Y-131807000D01*
X289806700Y-131500300D02*
X289806700Y-131500000D01*
X273426000Y-116500000D02*
X273425800Y-116500200D01*
X273420000Y-116506000D02*
X273420000Y-131500000D01*
X273425800Y-116500200D02*
X273420000Y-116506000D01*
X273425800Y-116500200D02*
X273425800Y-116500000D01*
X158713000Y-116500000D02*
X158712900Y-116500100D01*
X158712900Y-116500100D02*
X158712900Y-116500000D01*
X207871100Y-139437400D02*
X207871100Y-131500000D01*
X207871000Y-139437500D02*
X207871100Y-139437400D01*
X109549000Y-116501000D02*
X109550000Y-116500000D01*
X109549200Y-116501000D02*
X109550200Y-116500000D01*
X109549000Y-116501000D02*
X109549200Y-116501000D01*
X240648000Y-116502500D02*
X240651000Y-116500000D01*
X240648200Y-116502500D02*
X240650700Y-116500000D01*
X240648000Y-116502500D02*
X240648200Y-116502500D01*
X158709800Y-131500000D02*
X158710000Y-131500000D01*
X158710000Y-116503000D02*
X158710000Y-131500000D01*
X158712900Y-116500100D02*
X158710000Y-116503000D01*
X125937800Y-116500000D02*
X125937900Y-116500100D01*
X125938000Y-116500000D02*
X125937900Y-116500100D01*
X240645300Y-147500000D02*
X240645000Y-147500000D01*
X240645000Y-162345000D02*
X240645000Y-147500000D01*
X240800000Y-162500000D02*
X240645000Y-162345000D01*
X224258200Y-147500000D02*
X224258000Y-147500000D01*
X224258000Y-162358000D02*
X224400000Y-162500000D01*
X224258000Y-147500000D02*
X224258000Y-162358000D01*
X142322700Y-147500000D02*
X142323000Y-147500000D01*
X142323000Y-162423000D02*
X142323000Y-147500000D01*
X142400000Y-162500000D02*
X142323000Y-162423000D01*
X257032400Y-147500000D02*
X257032000Y-147500000D01*
X257032000Y-162332000D02*
X257032000Y-147500000D01*
X257200000Y-162500000D02*
X257032000Y-162332000D01*
X273419600Y-131500000D02*
X273420000Y-131500000D01*
X240645000Y-147500000D02*
X240645000Y-132002500D01*
X240645000Y-116505000D02*
X240648000Y-116502500D01*
X240645000Y-132002500D02*
X240645000Y-116505000D01*
X240645300Y-132002200D02*
X240645300Y-131500000D01*
X240645000Y-132002500D02*
X240645300Y-132002200D01*
X125935600Y-147500000D02*
X125936000Y-147500000D01*
X125936000Y-162436000D02*
X126000000Y-162500000D01*
X125936000Y-147500000D02*
X125936000Y-162436000D01*
X142323000Y-147500000D02*
X142323000Y-124622000D01*
X142323000Y-116503000D02*
X142325000Y-116500000D01*
X142323000Y-124622000D02*
X142323000Y-116503000D01*
X142325300Y-124619700D02*
X142323000Y-124622000D01*
X142325300Y-116500000D02*
X142325300Y-124619700D01*
X142322700Y-124622300D02*
X142322700Y-131500000D01*
X142323000Y-124622000D02*
X142322700Y-124622300D01*
X289813300Y-116500000D02*
X289813000Y-116500000D01*
X158710000Y-131500000D02*
X158710000Y-146955000D01*
X158710000Y-162410000D02*
X158800000Y-162500000D01*
X158710000Y-146955000D02*
X158710000Y-162410000D01*
X158709800Y-146955200D02*
X158709800Y-147500000D01*
X158710000Y-146955000D02*
X158709800Y-146955200D01*
X273420000Y-162320000D02*
X273420000Y-154910000D01*
X273600000Y-162500000D02*
X273420000Y-162320000D01*
X273420000Y-154910000D02*
X273420000Y-147500000D01*
X273419600Y-154909600D02*
X273419600Y-147500000D01*
X273420000Y-154910000D02*
X273419600Y-154909600D01*
X175096900Y-131500000D02*
X175097000Y-131500000D01*
X175097000Y-131500000D02*
X175097000Y-146100000D01*
X109548400Y-147500000D02*
X109548200Y-147500200D01*
X109600000Y-147552000D02*
X109548200Y-147500200D01*
X109600000Y-162500000D02*
X109600000Y-147552000D01*
X257032000Y-147500000D02*
X257032000Y-132003000D01*
X257032000Y-116506000D02*
X257035000Y-116503000D01*
X257032000Y-132003000D02*
X257032000Y-116506000D01*
X257032400Y-132002600D02*
X257032400Y-131500000D01*
X257032000Y-132003000D02*
X257032400Y-132002600D01*
X207871000Y-139437500D02*
X207871000Y-150904200D01*
X207871000Y-162371000D02*
X208000000Y-162500000D01*
X207871000Y-150904200D02*
X207871000Y-162371000D01*
X207871100Y-150904100D02*
X207871100Y-147500000D01*
X207871000Y-150904200D02*
X207871100Y-150904100D01*
X224258200Y-131500000D02*
X224258000Y-131500000D01*
X224258000Y-116505000D02*
X224258000Y-131500000D01*
X224260500Y-116502500D02*
X224258000Y-116505000D01*
X224258000Y-131500000D02*
X224258000Y-147500000D01*
X207876000Y-116500000D02*
X207873500Y-116502000D01*
X207871000Y-116504000D02*
X207871000Y-139437500D01*
X207873500Y-116502000D02*
X207871000Y-116504000D01*
X207873600Y-116502000D02*
X207875600Y-116500000D01*
X207873500Y-116502000D02*
X207873600Y-116502000D01*
X109548400Y-131500000D02*
X109548000Y-131500000D01*
X109548000Y-147500000D02*
X109548000Y-131500000D01*
X109548200Y-147500200D02*
X109548000Y-147500000D01*
X109548000Y-116502000D02*
X109549000Y-116501000D01*
X109548000Y-131500000D02*
X109548000Y-116502000D01*
X125936000Y-116502000D02*
X125936000Y-132001000D01*
X125937900Y-116500100D02*
X125936000Y-116502000D01*
X125936000Y-132001000D02*
X125936000Y-147500000D01*
X125935600Y-132000600D02*
X125935600Y-131500000D01*
X125936000Y-132001000D02*
X125935600Y-132000600D01*
X175100400Y-116500000D02*
X175100000Y-116500000D01*
X175100000Y-76848200D02*
X175100000Y-116500000D01*
X175102000Y-76846600D02*
X175100000Y-76848200D01*
X175097000Y-116504000D02*
X175097000Y-131500000D01*
X175100000Y-116500000D02*
X175097000Y-116504000D01*
%TD*%
M02*
