M48
; DRILL file {KiCad 9.0.0} date 2025-03-18T21:00:31+0100
; FORMAT={-:-/ absolute / inch / decimal}
; #@! TF.CreationDate,2025-03-18T21:00:31+01:00
; #@! TF.GenerationSoftware,Kicad,Pcbnew,9.0.0
; #@! TF.FileFunction,Plated,1,2,PTH
FMAT,2
INCH
; #@! TA.AperFunction,Plated,PTH,ViaDrill
T1C0.0118
; #@! TA.AperFunction,Plated,PTH,ComponentDrill
T2C0.0413
; #@! TA.AperFunction,Plated,PTH,ComponentDrill
T3C0.0728
%
G90
G05
T1
X0.7414Y-2.7659
X0.8066Y-2.6491
X0.8777Y-2.4362
X1.5472Y-2.5077
X1.6356Y-2.7971
X2.2675Y-4.8689
X2.29Y-2.4604
X2.29Y-3.0057
X2.3611Y-2.637
X2.3611Y-4.2401
X2.3883Y-4.3742
X2.395Y-2.5079
X2.4234Y-2.6373
X2.4234Y-4.2638
X2.4734Y-2.6362
X2.6405Y-2.6365
X2.6494Y-3.8174
X2.6734Y-2.6364
X2.7013Y-2.7278
X2.777Y-4.5033
X2.7952Y-3.0348
X2.8638Y-3.01
X2.8984Y-2.6248
X2.9311Y-4.4693
X2.9394Y-2.4329
X2.9394Y-2.6346
X3.1375Y-2.5406
X3.1375Y-4.0538
X3.4828Y-2.6685
X3.5856Y-2.5119
X3.7998Y-2.6856
X4.0862Y-4.8689
X4.1977Y-2.8363
X4.3154Y-2.4566
X4.3154Y-2.5676
X4.4969Y-5.0801
X4.5424Y-4.9857
X4.5856Y-2.998
X4.6321Y-2.628
X4.6396Y-3.1567
X4.6933Y-2.5056
X4.8383Y-3.0016
X4.8715Y-2.5022
X4.9124Y-2.6361
X5.3258Y-3.2112
X5.3776Y-2.8576
X5.4183Y-3.8174
X5.5137Y-2.8893
X5.5383Y-2.6758
X5.5383Y-4.8689
X5.7289Y-2.6758
X5.7289Y-5.0841
X5.971Y-3.2644
X5.9954Y-4.2401
X6.1326Y-2.9813
X6.1805Y-3.202
X6.3146Y-2.8705
X6.7276Y-2.628
X6.7276Y-4.1538
X6.7659Y-2.9694
X6.7745Y-2.6521
X6.7765Y-2.4999
X6.8083Y-2.5023
X6.8237Y-5.6811
X6.8938Y-3.0255
X6.8995Y-2.6394
X6.9562Y-3.0061
X6.9714Y-5.5698
X6.9887Y-5.7377
X6.9989Y-2.628
X7.0128Y-5.7048
X7.0306Y-5.6559
X7.0602Y-2.6365
X7.0983Y-3.0016
X7.15Y-3.0016
X7.2469Y-2.6468
X7.2473Y-2.5102
X7.2614Y-5.6755
X7.2831Y-5.6995
X7.2932Y-2.8396
X7.2938Y-3.0016
X7.3635Y-6.3242
X7.4222Y-5.7229
X7.7313Y-2.6934
X7.7369Y-2.5031
X7.7647Y-2.5445
X7.7647Y-4.2144
X7.9065Y-2.6219
X7.9991Y-3.5837
X8.0914Y-2.5187
X8.3108Y-2.7761
X8.5019Y-2.6505
X8.7554Y-2.6596
X9.0309Y-3.1835
X9.0309Y-5.0841
X9.1041Y-3.0098
X9.157Y-2.6309
X9.1706Y-6.0643
X9.2013Y-2.628
X9.2013Y-6.0372
X9.2894Y-3.5162
X9.4081Y-6.288
X9.4752Y-3.0452
X9.4754Y-3.0096
X9.5254Y-2.636
X9.604Y-3.0016
X9.6054Y-6.2643
X9.6422Y-3.0729
X9.8414Y-3.2204
X9.9346Y-2.831
X10.0889Y-2.8048
X10.6451Y-3.2451
X10.6727Y-3.1164
X10.7052Y-3.0917
X10.7819Y-2.7519
X11.2913Y-3.35
T2
X0.7414Y-3.4538
X0.7414Y-3.5538
X0.7414Y-3.6538
X0.7414Y-3.7538
X0.7414Y-3.8538
X0.7414Y-3.9538
X0.7414Y-4.0538
X0.7414Y-4.1538
X0.7414Y-4.2538
X0.7414Y-4.3538
X0.7414Y-4.4538
X0.7414Y-4.5538
X0.7414Y-4.6538
X0.7414Y-4.7538
X0.7414Y-4.8538
T3
X1.3622Y-4.5866
X1.3622Y-5.1772
X1.3622Y-5.8071
X1.3622Y-6.3976
X1.5472Y-4.5866
X1.5472Y-5.1772
X1.5472Y-5.8071
X1.5472Y-6.3976
X1.7323Y-4.5866
X1.7323Y-5.1772
X1.7323Y-5.8071
X1.7323Y-6.3976
X2.0074Y-5.1772
X2.0074Y-5.8071
X2.0074Y-4.5866
X2.0079Y-6.3976
X2.1924Y-5.1772
X2.1924Y-5.8071
X2.1924Y-4.5866
X2.1929Y-6.3976
X2.3774Y-5.1772
X2.3774Y-5.8071
X2.3775Y-4.5866
X2.378Y-6.3976
X2.6525Y-5.1772
X2.6525Y-5.8071
X2.6526Y-4.5866
X2.6535Y-6.3976
X2.8376Y-5.1772
X2.8376Y-5.8071
X2.8376Y-4.5866
X2.8386Y-6.3976
X3.0226Y-5.1772
X3.0226Y-5.8071
X3.0226Y-4.5866
X3.0236Y-6.3976
X3.2977Y-5.1772
X3.2977Y-5.8071
X3.2977Y-4.5866
X3.2992Y-6.3976
X3.4827Y-5.1772
X3.4827Y-5.8071
X3.4828Y-4.5866
X3.4843Y-6.3976
X3.6678Y-5.1772
X3.6678Y-5.8071
X3.6678Y-4.5866
X3.6693Y-6.3976
X3.9429Y-5.1772
X3.9429Y-5.8071
X3.9429Y-4.5866
X3.9449Y-6.3976
X4.1279Y-5.1772
X4.1279Y-5.8071
X4.128Y-4.5866
X4.1299Y-6.3976
X4.3129Y-5.1772
X4.3129Y-5.8071
X4.313Y-4.5866
X4.315Y-6.3976
X4.588Y-5.1772
X4.588Y-5.8071
X4.5881Y-4.5866
X4.5906Y-6.3976
X4.7731Y-5.1772
X4.7731Y-5.8071
X4.7731Y-4.5866
X4.7756Y-6.3976
X4.9581Y-5.1772
X4.9581Y-5.8071
X4.9582Y-4.5866
X4.9606Y-6.3976
X5.2332Y-5.1772
X5.2332Y-5.8071
X5.2333Y-4.5866
X5.2362Y-6.3976
X5.4182Y-5.1772
X5.4182Y-5.8071
X5.4183Y-4.5866
X5.4213Y-6.3976
X5.6033Y-5.1772
X5.6033Y-5.8071
X5.6034Y-4.5866
X5.6063Y-6.3976
X5.8783Y-5.1772
X5.8783Y-5.8071
X5.8785Y-4.5866
X5.8819Y-6.3976
X6.0634Y-5.1772
X6.0634Y-5.8071
X6.0635Y-4.5866
X6.0669Y-6.3976
X6.2484Y-5.1772
X6.2484Y-5.8071
X6.2485Y-4.5866
X6.252Y-6.3976
X6.5235Y-5.1772
X6.5235Y-5.8071
X6.5236Y-4.5866
X6.5276Y-6.3976
X6.7085Y-5.1772
X6.7085Y-5.8071
X6.7087Y-4.5866
X6.7126Y-6.3976
X6.8936Y-5.1772
X6.8936Y-5.8071
X6.8937Y-4.5866
X6.8976Y-6.3976
X7.1687Y-5.1772
X7.1687Y-5.8071
X7.1688Y-4.5866
X7.1732Y-6.3976
X7.3537Y-5.1772
X7.3537Y-5.8071
X7.3539Y-4.5866
X7.3583Y-6.3976
X7.5387Y-5.1772
X7.5387Y-5.8071
X7.5389Y-4.5866
X7.5433Y-6.3976
X7.8138Y-5.1772
X7.8138Y-5.8071
X7.814Y-4.5866
X7.8189Y-6.3976
X7.9989Y-5.1772
X7.9989Y-5.8071
X7.999Y-4.5866
X8.0039Y-6.3976
X8.1839Y-5.1772
X8.1839Y-5.8071
X8.1841Y-4.5866
X8.189Y-6.3976
X8.459Y-5.1772
X8.459Y-5.8071
X8.4592Y-4.5866
X8.4646Y-6.3976
X8.644Y-5.1772
X8.644Y-5.8071
X8.6442Y-4.5866
X8.6496Y-6.3976
X8.8291Y-5.1772
X8.8291Y-5.8071
X8.8293Y-4.5866
X8.8346Y-6.3976
X9.1041Y-5.1772
X9.1041Y-5.8071
X9.1044Y-4.5866
X9.1102Y-6.3976
X9.2892Y-5.1772
X9.2892Y-5.8071
X9.2894Y-4.5866
X9.2953Y-6.3976
X9.4742Y-5.1772
X9.4742Y-5.8071
X9.4744Y-4.5866
X9.4803Y-6.3976
X9.7493Y-5.1772
X9.7493Y-5.8071
X9.7495Y-4.5866
X9.7559Y-6.3976
X9.9343Y-5.1772
X9.9343Y-5.8071
X9.9346Y-4.5866
X9.9409Y-6.3976
X10.1194Y-5.1772
X10.1194Y-5.8071
X10.1196Y-4.5866
X10.126Y-6.3976
X10.3945Y-5.1772
X10.3945Y-5.8071
X10.3947Y-4.5866
X10.4016Y-6.3976
X10.5795Y-5.1772
X10.5795Y-5.8071
X10.5798Y-4.5866
X10.5866Y-6.3976
X10.7646Y-5.1772
X10.7646Y-5.8071
X10.7648Y-4.5866
X10.7717Y-6.3976
X11.0276Y-5.8071
X11.0396Y-5.1772
X11.0399Y-4.5866
X11.0472Y-6.3976
X11.2126Y-5.8071
X11.2247Y-5.1772
X11.2249Y-4.5866
X11.2323Y-6.3976
X11.3976Y-5.8071
X11.4097Y-5.1772
X11.41Y-4.5866
X11.4173Y-6.3976
M30
